<svg xmlns="http://www.w3.org/2000/svg" width="152" height="152" fill="none" viewBox="0 0 152 152"><circle cx="76" cy="76" r="76" fill="#F8F8F8"/><path fill="#CFCFD3" d="M97.3044 101.848L95.1602 62.1809L86.9376 59.5146L85.8936 62.1246C85.9296 62.2248 85.9532 62.3294 85.9599 62.4396L88.2099 104.065C88.2268 104.373 88.1154 104.674 87.9028 104.899C87.6902 105.123 87.3943 105.25 87.0861 105.25H80.5014V103H84.9384L82.7942 63.3329L74.5716 60.6666L71.4205 68.5428C71.2877 68.8735 71.0076 69.1221 70.6622 69.2121C70.5688 69.238 70.4721 69.2504 70.3765 69.2504C70.1233 69.2504 69.8758 69.1649 69.6733 69.004L65.8765 65.9665V103H63.6265V65.9665L59.8296 69.004C59.5506 69.2268 59.185 69.3066 58.8396 69.2133C58.4942 69.1221 58.2141 68.8746 58.0813 68.5439L54.9223 60.6475L46.7076 63.3318L44.5645 103H49.0015V107.5H50.1265H63.6265H65.8765H79.3764H80.5014V106.348H91.7425V104.098H89.4925C89.1865 104.098 88.8939 103.974 88.6813 103.753C88.4687 103.533 88.3562 103.234 88.3686 102.928L89.4936 74.8034L91.7413 74.8934L90.6636 101.848H97.3044ZM81.6264 98.5004H83.8764V100.75H81.6264V98.5004ZM47.8765 100.75H45.6265V98.5004H47.8765V100.75ZM51.2053 103L50.1276 76.0454L52.3753 75.9554L53.4576 103H51.2053ZM61.3765 98.5004H59.1265V96.2504H61.3765V98.5004ZM61.3765 87.2504H59.1265V85.0004H61.3765V87.2504ZM61.3765 76.0004H59.1265V73.7504H61.3765V76.0004ZM78.2976 103H76.0453L77.1276 75.9554L79.3753 76.0454L78.2976 103ZM93.9925 97.3484H96.2424V99.5984H93.9925V97.3484Z"/><path fill="#E8E7E9" d="M100.59 47.875H104.285C104.788 49.81 106.534 51.25 108.625 51.25C109.247 51.25 109.75 50.746 109.75 50.125V43.375C109.75 42.754 109.247 42.25 108.625 42.25C106.534 42.25 104.788 43.69 104.285 45.625H100.59C100.087 43.69 98.3414 42.25 96.25 42.25H92.875V44.5H96.25C97.0791 44.5 97.7969 44.9556 98.1872 45.625H82.5903C82.0874 43.69 80.3414 42.25 78.25 42.25H74.875V44.5H78.25C79.0791 44.5 79.7969 44.9556 80.1872 45.625H70.2153C69.7124 43.69 67.9664 42.25 65.875 42.25H62.5V44.5H65.875C66.7041 44.5 67.4219 44.9556 67.8123 45.625H47.7153C47.2124 43.69 45.4664 42.25 43.375 42.25C42.7529 42.25 42.25 42.754 42.25 43.375V50.125C42.25 50.746 42.7529 51.25 43.375 51.25C45.4664 51.25 47.2124 49.81 47.7153 47.875H67.8123C67.4219 48.5444 66.7041 49 65.875 49H64.75C64.1279 49 63.625 49.504 63.625 50.125V56.0279L56.1606 57.6873L59.6065 66.3003L64.75 62.3132L69.8935 66.2991L73.3394 57.6861L65.875 56.0279V51.25C67.9664 51.25 69.7124 49.81 70.2153 47.875H80.1872C79.7969 48.5444 79.0791 49 78.25 49H77.125C76.5029 49 76 49.504 76 50.125V54.8725L73.8827 55.3427L75.2215 58.2014L83.911 61.0184L85.7054 56.5341L78.25 54.877V51.25C80.3414 51.25 82.0874 49.81 82.5903 47.875H98.1872C97.7969 48.5444 97.0791 49 96.25 49H95.125C94.5029 49 94 49.504 94 50.125V53.7227L89.8184 54.652L90.3066 56.848L95.125 55.777L104.483 57.8571L106.805 62.5H96.25V64.75H97.9578L99.625 88.375H104.125V64.75H108.625C109.015 64.75 109.377 64.5475 109.582 64.2167C109.788 63.8849 109.806 63.4709 109.632 63.1221L106.257 56.3721C106.105 56.0695 105.825 55.8513 105.494 55.777L96.25 53.7227V51.25C98.3414 51.25 100.087 49.81 100.59 47.875Z"/></svg>