<svg width="152" height="152" viewBox="0 0 152 152" fill="none" xmlns="http://www.w3.org/2000/svg">
  <circle cx="76" cy="76" r="76" fill="#F8F8F8"/>
  <g clip-path="url(#clip0)">
    <path d="M61.375 62.5H95.125V67H61.375V62.5Z" fill="#E8E7E9"/>
    <path d="M61.375 58.6603L64.1577 55.8778C63.3297 55.2865 62.3782 54.8912 61.375 54.7217V58.6603Z" fill="#E8E7E9"/>
    <path d="M65.7513 57.4668L62.9688 60.2495H66.9074C66.7378 59.2463 66.3425 58.2948 65.7513 57.4668Z" fill="#E8E7E9"/>
    <path d="M59.1245 54.7217C58.1213 54.8912 57.1698 55.2864 56.3418 55.8776L59.1245 58.6603V54.7217Z" fill="#E8E7E9"/>
    <path d="M59.1245 64.0908L56.3418 66.8734C57.1698 67.4646 58.1213 67.8599 59.1245 68.0294V64.0908Z" fill="#E8E7E9"/>
    <path d="M54.7498 65.2827L57.5324 62.5H53.5938C53.7633 63.5032 54.1586 64.4547 54.7498 65.2827Z" fill="#E8E7E9"/>
    <path d="M54.7498 57.4668C54.1586 58.2948 53.7633 59.2463 53.5938 60.2495H57.5324L54.7498 57.4668Z" fill="#E8E7E9"/>
    <path d="M86.125 69.25H86.1184H61.375V71.6133C61.3756 72.7013 61.6914 73.7657 62.2842 74.6779C62.8771 75.5902 63.7215 76.3111 64.7154 76.7535L68.8262 78.5806C69.6085 78.9254 70.3013 79.4451 70.8514 80.0997C71.4014 80.7542 71.7939 81.5262 71.9988 82.3563L72.4382 84.1141C72.7411 85.3317 73.443 86.4129 74.4319 87.1851C75.4208 87.9574 76.6398 88.3763 77.8945 88.375H78.6041C79.8588 88.3763 81.0778 87.9574 82.0667 87.1851C83.0556 86.4129 83.7575 85.3317 84.0603 84.1141L84.4998 82.3563C84.7046 81.5262 85.0972 80.7541 85.6472 80.0995C86.1972 79.4449 86.8901 78.9252 87.6724 78.5803L91.7832 76.7532C92.7773 76.311 93.622 75.5902 94.2151 74.6781C94.8082 73.7659 95.1242 72.7014 95.125 71.6133V69.25H86.1287H86.125ZM74.875 74.875C74.875 74.6525 74.941 74.435 75.0646 74.25C75.1882 74.065 75.3639 73.9208 75.5695 73.8356C75.775 73.7505 76.0012 73.7282 76.2195 73.7716C76.4377 73.815 76.6382 73.9222 76.7955 74.0795C76.9528 74.2368 77.06 74.4373 77.1034 74.6555C77.1468 74.8738 77.1245 75.1 77.0394 75.3055C76.9542 75.5111 76.81 75.6868 76.625 75.8104C76.44 75.934 76.2225 76 76 76C75.7016 76 75.4155 75.8815 75.2045 75.6705C74.9935 75.4595 74.875 75.1734 74.875 74.875ZM77.125 83.875C76.9025 83.875 76.685 83.8091 76.5 83.6854C76.315 83.5618 76.1708 83.3861 76.0856 83.1806C76.0005 82.975 75.9782 82.7488 76.0216 82.5306C76.065 82.3123 76.1722 82.1119 76.3295 81.9545C76.4868 81.7972 76.6873 81.6901 76.9055 81.6466C77.1238 81.6032 77.35 81.6255 77.5555 81.7107C77.7611 81.7958 77.9368 81.94 78.0604 82.125C78.184 82.31 78.25 82.5275 78.25 82.75C78.25 83.0484 78.1315 83.3346 77.9205 83.5455C77.7095 83.7565 77.4234 83.875 77.125 83.875ZM81.625 79.375C81.4025 79.375 81.185 79.309 81 79.1854C80.815 79.0618 80.6708 78.8861 80.5856 78.6805C80.5005 78.475 80.4782 78.2488 80.5216 78.0305C80.565 77.8123 80.6722 77.6119 80.8295 77.4545C80.9868 77.2972 81.1873 77.19 81.4055 77.1466C81.6238 77.1032 81.85 77.1255 82.0555 77.2107C82.2611 77.2958 82.4368 77.44 82.5604 77.625C82.684 77.81 82.75 78.0275 82.75 78.25C82.75 78.5484 82.6315 78.8345 82.4205 79.0455C82.2095 79.2565 81.9234 79.375 81.625 79.375Z" fill="#CFCFD3"/>
    <path d="M69.1772 60.2514H71.4437C71.2308 58.1303 70.4196 56.1133 69.1046 54.4354C67.7896 52.7575 66.025 51.4878 64.0162 50.7741C62.0075 50.0605 59.8373 49.9322 57.7584 50.4044C55.6796 50.8765 53.7777 51.9296 52.2742 53.4409C50.7708 54.9523 49.7277 56.8597 49.2665 58.9409C48.8052 61.0222 48.9448 63.1917 49.669 65.1967C50.3932 67.2017 51.6722 68.9597 53.3569 70.2659C55.0417 71.5721 57.0628 72.3727 59.185 72.5745C59.1455 72.2561 59.1254 71.9356 59.1251 71.6147V70.3035C57.4544 70.0932 55.8762 69.4184 54.5699 68.3557C53.2637 67.293 52.2818 65.8851 51.736 64.2921C51.1902 62.6991 51.1023 60.9848 51.4823 59.3444C51.8623 57.7039 52.6951 56.2029 53.8858 55.0122C55.0765 53.8215 56.5774 52.9888 58.2179 52.6087C59.8584 52.2286 61.5726 52.3165 63.1656 52.8623C64.7586 53.4081 66.1665 54.3899 67.2292 55.6962C68.292 57.0024 68.9668 58.5806 69.1772 60.2514Z" fill="#CFCFD3"/>
    <path d="M79.375 90.5869V106.373H77.125V90.5869C77.3795 90.6108 77.6355 90.6235 77.8956 90.6235H78.6044C78.8645 90.6235 79.1205 90.6108 79.375 90.5869Z" fill="#E8E7E9"/>
    <path d="M85 107.538H71.5C71.2016 107.538 70.9155 107.42 70.7045 107.209C70.4935 106.998 70.375 106.711 70.375 106.413C70.375 106.115 70.4935 105.829 70.7045 105.618C70.9155 105.407 71.2016 105.288 71.5 105.288H85C85.2984 105.288 85.5845 105.407 85.7955 105.618C86.0065 105.829 86.125 106.115 86.125 106.413C86.125 106.711 86.0065 106.998 85.7955 107.209C85.5845 107.42 85.2984 107.538 85 107.538Z" fill="#E8E7E9"/>
    <path d="M105.08 50.6965C104.922 50.9493 104.67 51.1289 104.379 51.1958C104.089 51.2628 103.784 51.2117 103.531 51.0537L96.9212 46.9235C96.778 46.8341 96.6166 46.7781 96.4488 46.7596C96.281 46.7411 96.1112 46.7606 95.9519 46.8166C95.7927 46.8727 95.6481 46.9638 95.5289 47.0834C95.4097 47.2029 95.3189 47.3477 95.2633 47.5071L90.8406 60.2196H88.457L93.137 46.7688C93.3037 46.2902 93.5761 45.8552 93.9338 45.4962C94.2915 45.1372 94.7255 44.8633 95.2035 44.6948C95.6816 44.5264 96.1914 44.4677 96.6952 44.5232C97.199 44.5787 97.6838 44.7468 98.1137 45.0152L104.723 49.1454C104.976 49.3038 105.156 49.5561 105.223 49.847C105.29 50.1379 105.239 50.4434 105.08 50.6965Z" fill="#E8E7E9"/>
  </g>
  <defs>
    <clipPath id="clip0">
      <rect width="72" height="72" fill="white" transform="translate(40 40)"/>
    </clipPath>
  </defs>
</svg>
