<svg xmlns="http://www.w3.org/2000/svg" width="152" height="152" fill="none" viewBox="0 0 152 152"><circle cx="76" cy="76" r="76" fill="#F8F8F8"/><path fill="#E8E7E9" d="M85.8267 74.2891H82.9551V86.6833H85.8267V74.2891Z"/><path fill="#E8E7E9" d="M79.0803 74.2891H72.9121V86.6833H79.0803V74.2891Z"/><path fill="#E8E7E9" d="M76.0013 65.3682L69.0098 70.4242H82.9929L76.0013 65.3682Z"/><path fill="#E8E7E9" d="M69.0455 74.2891H66.1738V86.6833H69.0455V74.2891Z"/><path fill="#CFCFD3" d="M91.7415 53.2598V61.9712H87.8743V53.2598H64.1351V61.9712H60.268V53.2598H49.9375V97.8166H102.072V53.2598H91.7415Z"/><path fill="#E8E7E9" d="M102.072 101.688H49.9375V109.001H102.072V101.688Z"/><path fill="#E8E7E9" d="M82.0622 43H69.9348C64.6007 43 60.2617 47.339 60.2617 52.673V53.2621H64.1289V52.673C64.1289 49.4723 66.7328 46.8672 69.9348 46.8672H82.0622C85.2642 46.8672 87.8681 49.4723 87.8681 52.673V53.2621H91.7352V52.673C91.7352 47.339 87.3963 43 82.0622 43Z"/><path fill="#fff" d="M75.6055 67C72.5286 67.0036 69.5788 68.2275 67.4032 70.4032C65.2275 72.5788 64.0036 75.5286 64 78.6055V91H76.3945C79.4714 90.9964 82.4212 89.7725 84.5968 87.5968C86.7725 85.4212 87.9964 82.4714 88 79.3945V67H75.6055ZM74.955 81.3177H85.9456C85.7359 82.3619 85.3547 83.3642 84.8177 84.2839H71.9888L74.955 81.3177ZM76.8194 79.4533L79.7573 76.5154H86.1387V79.3998C86.1387 79.4197 86.1387 79.4396 86.1387 79.4585L76.8194 79.4533ZM86.1387 74.6468H81.627L86.1387 70.1351V74.6468ZM75.6055 68.8645H84.7747L65.8645 87.7747V78.6055C65.8689 76.0234 66.8966 73.5483 68.7225 71.7225C70.5483 69.8966 73.0234 68.8689 75.6055 68.8645ZM76.3945 89.1387H67.1372L70.1254 86.1484H83.4107C82.5034 87.0943 81.4141 87.8469 80.2083 88.3608C79.0025 88.8747 77.7052 89.1393 76.3945 89.1387Z"/></svg>