<svg width="152" height="152" viewBox="0 0 152 152" fill="none" xmlns="http://www.w3.org/2000/svg">
  <circle cx="76" cy="76" r="76" fill="#F8F8F8"/>
  <g clip-path="url(#clip0)">
    <path d="M63.1437 92.3595H72.7866C72.7881 91.2393 73.1402 90.1477 73.7935 89.2377C74.4468 88.3278 75.3685 87.6451 76.4294 87.2855L75.9629 85.577C75.7559 84.8214 75.2805 84.1672 74.6258 83.7371C73.971 83.3069 73.1819 83.1303 72.4062 83.2403L61.1524 84.8487C60.9298 84.8805 60.7029 84.8414 60.5037 84.7371C60.3045 84.6327 60.1432 84.4684 60.0426 84.2672C59.942 84.0661 59.9073 83.8384 59.9433 83.6165C59.9793 83.3945 60.0842 83.1895 60.2432 83.0305C60.2981 82.9754 65.2416 77.9775 66.1986 73.4395C64.3424 74.0602 61.1582 75.5652 59.8528 78.8289C59.7803 79.0101 59.6597 79.1681 59.5039 79.2858C59.3481 79.4035 59.1632 79.4764 58.969 79.4966C58.7748 79.5168 58.5788 79.4836 58.4021 79.4006C58.2255 79.3175 58.0749 79.1878 57.9666 79.0253L56.5394 76.8848C55.7291 77.9023 54.5723 80.0157 54.5723 83.7881V84.8595C54.5725 85.3278 54.6163 85.795 54.7032 86.2552C55.6688 85.9362 56.6963 85.851 57.7013 86.0065C58.7062 86.162 59.6599 86.5539 60.4839 87.1498C61.3078 87.7457 61.9786 88.5287 62.441 89.4344C62.9034 90.3401 63.1442 91.3426 63.1437 92.3595Z" fill="#E8E7E9"/>
    <path d="M47.0714 96.6438H104.929C105.213 96.6435 105.485 96.5305 105.686 96.3297C105.887 96.1288 106 95.8565 106 95.5724V94.501H46V95.5724C46.0003 95.8565 46.1133 96.1288 46.3142 96.3297C46.515 96.5305 46.7874 96.6435 47.0714 96.6438Z" fill="#CFCFD3"/>
    <path d="M88.8563 89.1452C88.5588 89.1456 88.2627 89.1867 87.9764 89.2675C87.8356 89.3069 87.6883 89.3172 87.5434 89.2976C87.3985 89.278 87.2591 89.229 87.1339 89.1535C87.0087 89.078 86.9002 88.9777 86.8152 88.8587C86.7302 88.7398 86.6705 88.6047 86.6397 88.4617C86.4835 87.7449 86.0868 87.1031 85.5155 86.6428C84.9442 86.1826 84.2327 85.9316 83.499 85.9316C82.7654 85.9316 82.0538 86.1826 81.4825 86.6428C80.9112 87.1031 80.5146 87.7449 80.3584 88.4617C80.3276 88.6047 80.2678 88.7398 80.1828 88.8587C80.0978 88.9777 79.9894 89.078 79.8642 89.1535C79.7389 89.229 79.5996 89.278 79.4547 89.2976C79.3098 89.3172 79.1624 89.3069 79.0217 89.2675C78.7354 89.1867 78.4394 89.1456 78.142 89.1452C77.2898 89.1461 76.4728 89.4851 75.8702 90.0877C75.2676 90.6903 74.9287 91.5073 74.9277 92.3595H92.0706C92.0696 91.5073 91.7307 90.6903 91.1281 90.0877C90.5255 89.4851 89.7085 89.1461 88.8563 89.1452Z" fill="#E8E7E9"/>
    <path d="M52.4277 92.359H60.9992C60.9992 91.2223 60.5476 90.1322 59.7439 89.3285C58.9402 88.5248 57.8501 88.0732 56.7134 88.0732C55.5768 88.0732 54.4867 88.5248 53.683 89.3285C52.8793 90.1322 52.4277 91.2223 52.4277 92.359Z" fill="#E8E7E9"/>
    <path d="M96.7223 59.2253L102.073 53.8735C102.172 53.774 102.29 53.6951 102.42 53.6412C102.55 53.5874 102.69 53.5597 102.83 53.5597C102.971 53.5597 103.111 53.5874 103.241 53.6412C103.371 53.6951 103.489 53.774 103.588 53.8735C103.687 53.9765 103.805 54.0588 103.936 54.1155C104.067 54.1722 104.208 54.2022 104.351 54.2037C104.493 54.2052 104.635 54.1783 104.767 54.1243C104.899 54.0704 105.019 53.9906 105.12 53.8897C105.221 53.7888 105.3 53.6687 105.354 53.5366C105.408 53.4045 105.435 53.2629 105.433 53.1203C105.432 52.9776 105.402 52.8367 105.345 52.7058C105.288 52.5749 105.206 52.4567 105.102 52.3581L102.073 49.3288C101.975 49.2261 101.856 49.1441 101.725 49.0876C101.595 49.0312 101.454 49.0014 101.311 49C101.169 48.9987 101.028 49.0257 100.896 49.0796C100.764 49.1335 100.644 49.2132 100.543 49.314C100.442 49.4148 100.363 49.5346 100.309 49.6665C100.255 49.7984 100.228 49.9398 100.23 50.0823C100.231 50.2247 100.261 50.3655 100.317 50.4963C100.374 50.6271 100.456 50.7453 100.559 50.844C100.658 50.9435 100.737 51.0616 100.791 51.1916C100.845 51.3216 100.873 51.461 100.873 51.6017C100.873 51.7424 100.845 51.8817 100.791 52.0117C100.737 52.1417 100.658 52.2598 100.559 52.3593L95.207 57.71C95.774 58.1493 96.2832 58.6585 96.7224 59.2254L96.7223 59.2253Z" fill="#CFCFD3"/>
    <path d="M51.4963 88.616C51.8494 88.1257 52.2694 87.6872 52.7439 87.3132C52.5345 86.5132 52.4288 85.6897 52.4295 84.8628V83.7914C52.4295 76.869 55.9701 74.429 56.1208 74.3285C56.3572 74.1709 56.6466 74.1136 56.9252 74.1693C57.2039 74.225 57.449 74.3892 57.6066 74.6256L58.7429 76.33C61.5635 71.9475 66.997 70.9916 67.2534 70.9488C67.4068 70.9233 67.5641 70.9314 67.7141 70.9728C67.8641 71.0141 68.0033 71.0876 68.122 71.1882C68.2407 71.2887 68.3361 71.414 68.4016 71.5552C68.467 71.6963 68.5009 71.8501 68.5009 72.0057C68.5009 75.7616 65.7272 79.8598 63.7355 82.3182L72.1033 81.1223C73.3958 80.9393 74.7107 81.2338 75.8017 81.9507C76.8926 82.6675 77.6848 83.7576 78.0298 85.0166L78.5777 87.0235H78.5838C78.9984 86.0635 79.6849 85.2459 80.5587 84.6714C81.4324 84.097 82.4552 83.7909 83.5009 83.7909C84.5466 83.7909 85.5694 84.097 86.4431 84.6714C87.3169 85.2459 88.0034 86.0635 88.4179 87.0235C88.5645 87.0116 88.7112 87.0057 88.858 87.0057C90.2783 87.0073 91.64 87.5722 92.6443 88.5765C93.6487 89.5808 94.2136 90.9425 94.2152 92.3628H102.787C103.071 92.3628 103.343 92.2499 103.544 92.049C103.745 91.8481 103.858 91.5755 103.858 91.2914C103.858 91.0072 103.745 90.7347 103.544 90.5338C103.343 90.3328 103.071 90.22 102.787 90.22H100.644C100.36 90.22 100.087 90.1071 99.8861 89.9061C99.6852 89.7052 99.5723 89.4327 99.5723 89.1485V79.5057C99.5702 78.2224 99.2399 76.9609 98.6128 75.8413C97.9857 74.7217 97.0826 73.7811 95.9893 73.109C95.3309 74.0934 94.5773 75.0106 93.7393 75.8475C91.1481 78.4388 87.9402 80.1199 84.7076 80.582C84.126 80.6661 83.5392 80.7088 82.9516 80.7098C80.3245 80.7098 78.0108 79.8171 76.3142 78.1204C74.2486 76.0549 73.3744 73.074 73.8525 69.727C74.2523 66.9279 75.5668 64.1497 77.594 61.7725L77.3427 61.5571C76.4939 60.8266 75.4918 60.2964 74.4104 60.0055C73.329 59.7146 72.1961 59.6705 71.0954 59.8766L58.4647 62.2163C55.2652 62.809 52.3742 64.503 50.2932 67.0045C48.2123 69.506 47.0727 72.6571 47.0723 75.911V78.4342C47.0666 80.3449 47.4567 82.236 48.2181 83.9884C48.9795 85.7408 50.0957 87.3164 51.4963 88.616Z" fill="#E8E7E9"/>
    <path d="M77.8319 76.6024C81.1742 79.9445 87.6314 78.9246 92.2265 74.3297C96.8216 69.7347 97.8415 63.277 94.4993 59.9349C93.1714 58.607 91.352 57.9678 89.3524 57.9678C86.3197 57.9678 82.8742 59.4384 80.1048 62.2078C77.8391 64.4733 76.373 67.2503 75.9763 70.0273C75.5958 72.6904 76.2549 75.0254 77.8319 76.6024Z" fill="#E8E7E9"/>
    <path d="M48.1436 99.8585C48.1445 100.711 48.4835 101.528 49.0861 102.13C49.6886 102.733 50.5057 103.072 51.3578 103.073H100.644C101.496 103.072 102.313 102.733 102.915 102.13C103.518 101.528 103.857 100.711 103.858 99.8585V98.7871H48.1436V99.8585Z" fill="#E8E7E9"/>
  </g>
  <defs>
    <clipPath id="clip0">
      <rect width="72" height="72" fill="white" transform="translate(40 40)"/>
    </clipPath>
  </defs>
</svg>
