<svg xmlns="http://www.w3.org/2000/svg" width="152" height="152" fill="none" viewBox="0 0 152 152"><circle cx="76" cy="76" r="76" fill="#F8F8F8"/><g clip-path="url(#clip0)"><path fill="#E8E7E9" d="M112.019 86.1354L107.6 76.1915C107.449 75.8526 107.449 75.4664 107.6 75.1282L112.019 65.1836H100.047C102.983 71.8589 102.983 79.4601 100.047 86.1354H112.019Z"/><path fill="#CFCFD3" d="M86.519 71.7051L84.5548 69.0859H80.7812L82.0907 71.7051H86.519Z"/><path fill="#CFCFD3" d="M82.2604 74.3242L79.5156 82.5586L86.3773 74.3242H82.2604Z"/><path fill="#E8E7E9" d="M49.8511 75.6329C49.8536 71.5363 50.8242 67.4979 52.6849 63.8477H40L44.5205 75.147C44.6452 75.459 44.6452 75.8068 44.5205 76.1188L40 87.4182H52.6849C50.8242 83.7679 49.8536 79.7301 49.8511 75.6329Z"/><path fill="#CFCFD3" d="M77.8342 69.0859H74.2156L72.9062 71.7051H79.1436L77.8342 69.0859Z"/><path fill="#E8E7E9" d="M55.7849 87.6616C56.1001 87.8713 56.306 88.2102 56.3469 88.5862C60.946 95.592 68.9244 99.6227 77.2927 99.1687C85.6604 98.7141 93.1553 93.8432 96.9693 86.3809V86.1085H97.1004C102.155 75.9966 99.3178 63.719 90.3388 56.85C81.3599 49.981 68.7677 50.4542 60.3303 57.9779C51.8923 65.5022 49.9843 77.9576 55.7836 87.6616H55.7849ZM76.0178 54.6812C87.5888 54.6812 96.9693 64.0617 96.9693 75.6327C96.9693 87.2038 87.5888 96.5843 76.0178 96.5843C64.4467 96.5843 55.0662 87.2038 55.0662 75.6327C55.0803 64.0674 64.4525 54.6953 76.0178 54.6812Z"/><path fill="#CFCFD3" d="M65.7344 74.3242L72.5957 82.5586L69.8508 74.3242H65.7344Z"/><path fill="#CFCFD3" d="M79.4691 74.3242H72.625L76.0467 84.5876L79.4691 74.3242Z"/><path fill="#CFCFD3" d="M76.0514 93.9738C86.1761 93.9738 94.384 85.7659 94.384 75.6412C94.384 65.5164 86.1761 57.3086 76.0514 57.3086C65.9266 57.3086 57.7188 65.5164 57.7188 75.6412C57.7296 85.7615 65.9311 93.9629 76.0514 93.9738ZM65.8377 66.9986C66.0845 66.6693 66.4726 66.4749 66.8851 66.4749H85.2177C85.6301 66.4749 86.0182 66.6693 86.2656 66.9986L90.194 72.2364C90.5585 72.7224 90.5412 73.3957 90.1518 73.8618L77.0571 89.5754C77.0399 89.5953 77.0136 89.6029 76.9957 89.6228C76.9011 89.7225 76.7918 89.8075 76.6709 89.8728C76.6287 89.8951 76.5923 89.9169 76.5488 89.9354C76.2336 90.0825 75.8691 90.0825 75.5539 89.9354C75.5104 89.9169 75.474 89.8951 75.4318 89.8728C75.3109 89.8075 75.2016 89.7225 75.107 89.6228C75.0891 89.6029 75.0629 89.5953 75.0456 89.5754L61.9509 73.8618C61.5621 73.3957 61.5442 72.7224 61.9093 72.2364L65.8377 66.9986Z"/><path fill="#CFCFD3" d="M71.3315 69.0859H67.5579L65.5938 71.7051H70.0221L71.3315 69.0859Z"/></g><defs><clipPath id="clip0"><rect width="72" height="72" fill="#fff" transform="translate(40 40)"/></clipPath></defs></svg>