<svg xmlns="http://www.w3.org/2000/svg" width="330" height="182" fill="none" viewBox="0 0 330 182"><rect width="328" height="180" fill="#F8F8F8" transform="translate(1 1)"/><path stroke="#F8F8F8" d="M1 5C1 2.79086 2.79086 1 5 1H325C327.209 1 329 2.79086 329 5V181H1V5Z"/><path fill="#CFCFD3" d="M153.12 47.917V51.8898H137.583V131.155H143.327V57.6337H153.12V138L191.193 131.155V119.955V54.7761L153.12 47.917ZM160.124 96.046C158.844 96.046 157.806 94.6959 157.806 93.0305C157.806 91.3653 158.844 90.0153 160.124 90.0153C161.404 90.0153 162.441 91.3653 162.441 93.0305C162.441 94.6959 161.404 96.046 160.124 96.046Z"/><path fill="#E8E7E9" d="M160.124 96.0468C158.844 96.0468 157.806 94.6968 157.806 93.0314C157.806 91.3661 158.844 90.0161 160.124 90.0161C161.404 90.0161 162.441 91.3661 162.441 93.0314C162.441 94.6968 161.404 96.0468 160.124 96.0468Z"/><path fill="#E8E7E9" d="M137.583 51.8906H153.12V57.6346H143.327V131.156H137.583V51.8906Z"/></svg>