<svg width="152" height="152" viewBox="0 0 152 152" fill="none" xmlns="http://www.w3.org/2000/svg">
  <circle cx="76" cy="76" r="76" fill="#F8F8F8"/>
  <path d="M55.75 82.7514C55.75 82.6248 55.7532 82.4983 55.7579 82.3717C55.092 81.5496 54.5586 80.6284 54.1771 79.6416C53.7268 81.3926 53.4993 83.1934 53.5 85.0014V92.8764C54.5745 92.8767 55.6376 92.6564 56.6235 92.2292C57.6095 91.802 58.4972 91.1771 59.2319 90.3929C58.1382 89.4428 57.2613 88.2689 56.6606 86.9505C56.0599 85.6322 55.7494 84.2001 55.75 82.7514Z" fill="#CFCFD3"/>
  <path d="M63.4797 75.25C62.3369 75.6155 61.2924 76.2368 60.4258 77.0666C60.7151 77.9206 61.3307 78.6255 62.138 79.027C62.4766 77.732 62.9255 76.4684 63.4797 75.25V75.25Z" fill="#E8E7E9"/>
  <path d="M64.7323 63.6572C53.4753 64.2532 44.5 73.5987 44.5 85.0015C44.4972 86.0361 44.6995 87.061 45.0954 88.0169C45.4913 88.9728 46.0728 89.8406 46.8063 90.5703C48.0097 91.7707 49.568 92.5511 51.25 92.7958V85.0015C51.2502 80.5332 52.5168 76.1565 54.903 72.3788C57.2893 68.601 60.6974 65.577 64.7323 63.6572V63.6572Z" fill="#E8E7E9"/>
  <path d="M60.5336 88.5351C60.9558 87.6991 61.2242 86.7941 61.3261 85.8632C60.2214 85.607 59.1681 85.1656 58.2109 84.5576C58.571 86.0855 59.3799 87.4707 60.5336 88.5351V88.5351Z" fill="#E8E7E9"/>
  <path d="M86.1252 63.625H85.0002C73.214 63.625 63.6252 73.2138 63.6252 85C63.6254 86.5107 63.287 88.0023 62.635 89.3651C61.983 90.7279 61.0339 91.9272 59.8574 92.875H99.6252C101.713 92.8727 103.715 92.0422 105.191 90.5659C106.667 89.0895 107.498 87.0879 107.5 85C107.5 73.2138 97.9114 63.625 86.1252 63.625ZM83.8752 88.375C83.6527 88.375 83.4352 88.309 83.2502 88.1854C83.0652 88.0618 82.921 87.8861 82.8358 87.6805C82.7507 87.475 82.7284 87.2488 82.7718 87.0305C82.8152 86.8123 82.9224 86.6118 83.0797 86.4545C83.237 86.2972 83.4375 86.19 83.6557 86.1466C83.8739 86.1032 84.1001 86.1255 84.3057 86.2106C84.5113 86.2958 84.687 86.44 84.8106 86.625C84.9342 86.81 85.0002 87.0275 85.0002 87.25C85.0002 87.5484 84.8817 87.8345 84.6707 88.0455C84.4597 88.2565 84.1736 88.375 83.8752 88.375ZM90.6252 88.375C90.4027 88.375 90.1852 88.309 90.0002 88.1854C89.8152 88.0618 89.671 87.8861 89.5858 87.6805C89.5007 87.475 89.4784 87.2488 89.5218 87.0305C89.5652 86.8123 89.6724 86.6118 89.8297 86.4545C89.987 86.2972 90.1875 86.19 90.4057 86.1466C90.6239 86.1032 90.8501 86.1255 91.0557 86.2106C91.2613 86.2958 91.437 86.44 91.5606 86.625C91.6842 86.81 91.7502 87.0275 91.7502 87.25C91.7502 87.5484 91.6317 87.8345 91.4207 88.0455C91.2097 88.2565 90.9236 88.375 90.6252 88.375ZM90.6252 81.625C90.4027 81.625 90.1852 81.559 90.0002 81.4354C89.8152 81.3118 89.671 81.1361 89.5858 80.9305C89.5007 80.725 89.4784 80.4988 89.5218 80.2805C89.5652 80.0623 89.6724 79.8618 89.8297 79.7045C89.987 79.5472 90.1875 79.44 90.4057 79.3966C90.6239 79.3532 90.8501 79.3755 91.0557 79.4606C91.2613 79.5458 91.437 79.69 91.5606 79.875C91.6842 80.06 91.7502 80.2775 91.7502 80.5C91.7502 80.7984 91.6317 81.0845 91.4207 81.2955C91.2097 81.5065 90.9236 81.625 90.6252 81.625ZM97.3752 88.375C97.1527 88.375 96.9352 88.309 96.7502 88.1854C96.5652 88.0618 96.421 87.8861 96.3358 87.6805C96.2507 87.475 96.2284 87.2488 96.2718 87.0305C96.3152 86.8123 96.4224 86.6118 96.5797 86.4545C96.737 86.2972 96.9375 86.19 97.1557 86.1466C97.3739 86.1032 97.6001 86.1255 97.8057 86.2106C98.0113 86.2958 98.187 86.44 98.3106 86.625C98.4342 86.81 98.5002 87.0275 98.5002 87.25C98.5002 87.5484 98.3817 87.8345 98.1707 88.0455C97.9597 88.2565 97.6736 88.375 97.3752 88.375ZM97.3752 81.625C97.1527 81.625 96.9352 81.559 96.7502 81.4354C96.5652 81.3118 96.421 81.1361 96.3358 80.9305C96.2507 80.725 96.2284 80.4988 96.2718 80.2805C96.3152 80.0623 96.4224 79.8618 96.5797 79.7045C96.737 79.5472 96.9375 79.44 97.1557 79.3966C97.3739 79.3532 97.6001 79.3755 97.8057 79.4606C98.0113 79.5458 98.187 79.69 98.3106 79.875C98.4342 80.06 98.5002 80.2775 98.5002 80.5C98.5002 80.7984 98.3817 81.0845 98.1707 81.2955C97.9597 81.5065 97.6736 81.625 97.3752 81.625Z" fill="#E8E7E9"/>
  <path d="M61.672 81.2734C60.7786 80.9364 59.9845 80.3796 59.3632 79.6545C58.7418 78.9295 58.3132 78.0595 58.1169 77.125H55.832C56.0493 78.6206 56.6917 80.0223 57.6826 81.1634C58.6735 82.3045 59.9714 83.1369 61.4217 83.5617C61.4684 82.7882 61.5519 82.0255 61.672 81.2734Z" fill="#E8E7E9"/>
  <path d="M56.0371 74.8744H59.1261C59.2377 74.8744 59.3487 74.891 59.4554 74.9236C60.995 73.662 62.8715 72.881 64.8515 72.6777C64.9583 72.5039 65.0672 72.3316 65.1783 72.1609C64.5592 70.0985 64.6142 67.8923 65.3354 65.8633C61.3759 67.8293 58.1263 70.9785 56.0371 74.8744V74.8744Z" fill="#CFCFD3"/>
  <path d="M104.11 69.7C104.118 69.5505 104.124 69.4006 104.124 69.25C104.123 67.8947 103.772 66.5626 103.106 65.3823C102.44 64.202 101.481 63.2135 100.321 62.5122C99.1614 61.8109 97.8404 61.4205 96.4858 61.3787C95.1311 61.337 93.7886 61.6453 92.5879 62.2739C97.0768 63.559 101.086 66.1427 104.11 69.7V69.7Z" fill="#CFCFD3"/>
  <path d="M86.125 61.3745C86.8844 61.3745 87.6342 61.4119 88.375 61.4822V59.2041C86.7072 59.4435 85.1604 60.2126 83.9629 61.3979C84.307 61.3829 84.652 61.3738 85 61.3738L86.125 61.3745Z" fill="#CFCFD3"/>
  <path d="M78.5338 62.2775C77.3333 61.6486 75.991 61.3401 74.6364 61.3816C73.2819 61.4232 71.961 61.8135 70.8014 62.5148C69.6417 63.216 68.6826 64.2046 68.0167 65.3849C67.3508 66.5652 67.0006 67.8973 67 69.2525C67 69.4031 67.0058 69.553 67.0141 69.7025C70.038 66.1459 74.0459 63.5627 78.5338 62.2775V62.2775Z" fill="#CFCFD3"/>
</svg>
