<svg viewBox="0 0 288 163" fill="none" xmlns="http://www.w3.org/2000/svg">
<g opacity="0.4">
<path d="M88.6529 28.0741L46.4646 42.3784C45.9508 42.5526 45.3825 42.3925 45.0349 41.976C44.6874 41.5592 44.6322 40.9714 44.896 40.4971L55.3802 21.6493C55.6844 21.1022 56.3334 20.8459 56.9296 21.0379L63.461 23.1406L67.3665 17.4992C67.7231 16.9841 68.3937 16.793 68.9683 17.0421L88.7537 25.6267C89.2516 25.8429 89.5652 26.3429 89.5429 26.8852C89.5205 27.4272 89.1668 27.8999 88.6529 28.0741ZM48.8447 38.7992L84.5868 26.6805L68.9119 19.8794L65.0653 25.4359C64.736 25.9114 64.1343 26.1153 63.5836 25.9382L57.1506 23.8671L48.8447 38.7992Z" fill="#CFEFE4"/>
<path d="M46.4663 42.3856C46.296 42.4433 46.1127 42.4665 45.9266 42.4497C45.4095 42.4028 44.9686 42.0555 44.8019 41.5638L36.3435 16.617C36.1842 16.1472 36.3033 15.6279 36.6513 15.2744C36.9992 14.9211 37.5168 14.7941 37.9889 14.9459L56.9316 21.0449C57.3057 21.1655 57.6062 21.4472 57.7504 21.8128C57.8945 22.1781 57.8675 22.5893 57.6764 22.9327L47.1922 41.7804C47.0306 42.0709 46.7693 42.2829 46.4663 42.3856ZM39.6674 18.2446L46.3373 37.9165L54.6047 23.054L39.6674 18.2446Z" fill="#CFEFE4"/>
<path d="M88.6566 28.0808C88.3537 28.1835 88.0173 28.1742 87.7124 28.042L67.927 19.4574C67.5664 19.3011 67.2949 18.9911 67.1871 18.6134C67.0793 18.2355 67.1464 17.8292 67.37 17.5059L78.6971 1.14368C78.9796 0.736042 79.4677 0.522079 79.9586 0.590829C80.4499 0.65981 80.8603 0.999545 81.0196 1.46937L89.4781 26.4162C89.6448 26.9079 89.5061 27.4517 89.1241 27.8035C88.9865 27.93 88.8269 28.0231 88.6566 28.0808ZM70.4389 17.6854L86.0407 24.4548L79.3708 4.78294L70.4389 17.6854Z" fill="#CFEFE4"/>
<path d="M64.4089 25.9386C64.1485 26.0269 63.8604 26.0336 63.5851 25.945L37.1839 17.4448C36.6449 17.2713 36.2778 16.7714 36.2735 16.2052C36.2691 15.639 36.6284 15.1339 37.1647 14.952L79.3529 0.647725C79.8892 0.465936 80.4817 0.648341 80.8226 1.1005C81.1634 1.55258 81.176 2.17264 80.8537 2.63815L65.0667 25.4426C64.902 25.6804 64.6693 25.8503 64.4089 25.9386ZM41.7692 16.163L63.4625 23.1473L76.4343 4.40952L41.7692 16.163Z" fill="#CFEFE4"/>
</g>
<g opacity="0.4">
<path d="M81.0406 140.71L36.4842 162.815C35.9414 163.084 35.2888 162.991 34.8423 162.582C34.3958 162.173 34.2472 161.53 34.4685 160.966L43.2662 138.55C43.5215 137.899 44.2014 137.519 44.8899 137.643L52.4301 138.998L55.9126 132.174C56.2305 131.551 56.9444 131.24 57.6171 131.431L80.7882 137.987C81.3714 138.152 81.7927 138.659 81.8487 139.262C81.9044 139.865 81.5833 140.441 81.0406 140.71ZM38.5854 158.5L76.3339 139.773L57.9768 134.579L54.5468 141.3C54.2531 141.875 53.6176 142.19 52.982 142.076L45.5553 140.741L38.5854 158.5Z" fill="#CFEFE4"/>
<path d="M36.4847 162.813C36.3048 162.903 36.1055 162.956 35.897 162.965C35.3177 162.99 34.7782 162.671 34.5206 162.152L21.4496 135.805C21.2034 135.308 21.258 134.716 21.5905 134.273C21.9229 133.83 22.4767 133.613 23.0218 133.711L44.8906 137.642C45.3225 137.719 45.6969 137.986 45.9109 138.369C46.1248 138.752 46.1561 139.211 45.9956 139.62L37.1979 162.036C37.0623 162.381 36.8046 162.655 36.4847 162.813ZM25.3699 137.111L35.6771 157.887L42.6146 140.211L25.3699 137.111Z" fill="#CFEFE4"/>
<path d="M81.0384 140.716C80.7185 140.874 80.3448 140.914 79.9878 140.813L56.8167 134.257C56.3945 134.138 56.0479 133.835 55.8724 133.433C55.6969 133.031 55.7107 132.571 55.9102 132.18L66.0102 112.389C66.2621 111.896 66.7704 111.587 67.324 111.59C67.8778 111.593 68.3825 111.908 68.6287 112.404L81.6997 138.751C81.9574 139.271 81.8847 139.893 81.5144 140.339C81.381 140.5 81.2183 140.626 81.0384 140.716ZM59.3328 131.923L77.6044 137.092L67.2973 116.316L59.3328 131.923Z" fill="#CFEFE4"/>
<path d="M53.8896 141.952C53.6146 142.088 53.2968 142.139 52.979 142.082L22.4995 136.603C21.8773 136.491 21.3968 135.993 21.3076 135.367C21.2186 134.741 21.541 134.128 22.1074 133.847L66.6638 111.743C67.2301 111.462 67.9129 111.575 68.3574 112.025C68.8018 112.475 68.908 113.159 68.6207 113.722L54.5437 141.305C54.3969 141.593 54.1647 141.815 53.8896 141.952ZM27.3829 134.502L52.4271 139.004L63.9939 116.339L27.3829 134.502Z" fill="#CFEFE4"/>
</g>
<g opacity="0.4">
<path d="M215.699 103.377L171.513 84.3257C170.975 84.0936 170.635 83.5541 170.657 82.9685C170.68 82.3828 171.061 81.8715 171.616 81.6818L193.661 74.1505C194.301 73.9319 195.007 74.1957 195.346 74.7812L199.063 81.1931L206.277 79.4942C206.936 79.339 207.612 79.671 207.893 80.2865L217.55 101.487C217.793 102.02 217.683 102.648 217.273 103.067C216.863 103.486 216.237 103.609 215.699 103.377ZM176.011 83.177L213.446 99.3173L205.795 82.5215L198.689 84.1949C198.081 84.3381 197.451 84.0663 197.138 83.5259L193.477 77.2105L176.011 83.177Z" fill="#CFEFE4"/>
<path d="M171.512 84.3247C171.334 84.2478 171.17 84.1337 171.033 83.9856C170.652 83.5738 170.55 82.9763 170.772 82.4613L182.037 56.3332C182.249 55.8412 182.72 55.5108 183.255 55.479C183.79 55.4475 184.297 55.7201 184.566 56.1834L195.346 74.7804C195.559 75.1478 195.596 75.5911 195.447 75.9887C195.298 76.386 194.979 76.6962 194.577 76.8334L172.532 84.3647C172.192 84.4805 171.829 84.4614 171.512 84.3247ZM183.525 60.0434L174.642 80.6468L192.026 74.7081L183.525 60.0434Z" fill="#CFEFE4"/>
<path d="M215.702 103.376C215.384 103.239 215.121 102.988 214.972 102.661L205.315 81.4611C205.139 81.0748 205.145 80.6298 205.332 80.2489C205.519 79.8678 205.867 79.5904 206.28 79.493L227.203 74.5651C227.724 74.4424 228.271 74.624 228.615 75.0344C228.959 75.4451 229.042 76.0146 228.83 76.5066L217.565 102.635C217.343 103.15 216.838 103.486 216.277 103.491C216.075 103.493 215.88 103.453 215.702 103.376ZM208.611 81.8574L216.227 98.5748L225.11 77.9714L208.611 81.8574Z" fill="#CFEFE4"/>
<path d="M197.803 84.1159C197.53 83.9983 197.294 83.7952 197.137 83.525L182.113 57.6058C181.806 57.0767 181.873 56.4102 182.279 55.9528C182.685 55.4955 183.339 55.3504 183.901 55.5925L228.087 74.6436C228.648 74.8857 228.992 75.4607 228.938 76.07C228.884 76.6792 228.446 77.1856 227.85 77.3258L198.689 84.1939C198.385 84.2656 198.076 84.2335 197.803 84.1159ZM186.718 59.8953L199.063 81.1923L223.024 75.5491L186.718 59.8953Z" fill="#CFEFE4"/>
</g>
<g opacity="0.4">
<path d="M265.532 137.424L229.143 148.103C228.7 148.233 228.222 148.076 227.941 147.71C227.66 147.343 227.634 146.841 227.875 146.447L237.458 130.785C237.736 130.331 238.297 130.136 238.797 130.32L244.279 132.339L247.8 127.678C248.121 127.253 248.699 127.114 249.178 127.346L265.705 135.346C266.12 135.548 266.37 135.984 266.331 136.445C266.293 136.905 265.976 137.294 265.532 137.424ZM231.294 145.142L262.123 136.096L249.03 129.758L245.562 134.348C245.265 134.741 244.746 134.893 244.284 134.723L238.886 132.734L231.294 145.142Z" fill="#CFEFE4"/>
<path d="M229.145 148.11C228.998 148.153 228.841 148.166 228.683 148.146C228.245 148.087 227.882 147.776 227.758 147.352L221.444 125.834C221.325 125.429 221.444 124.992 221.753 124.703C222.061 124.415 222.506 124.325 222.902 124.471L238.799 130.327C239.113 130.443 239.359 130.693 239.469 131.009C239.579 131.325 239.541 131.674 239.366 131.959L229.783 147.621C229.636 147.862 229.406 148.033 229.145 148.11ZM224.214 127.336L229.193 144.304L236.749 131.954L224.214 127.336Z" fill="#CFEFE4"/>
<path d="M265.537 137.423C265.275 137.499 264.99 137.479 264.735 137.356L248.209 129.356C247.908 129.21 247.688 128.937 247.609 128.612C247.531 128.287 247.602 127.943 247.804 127.676L258.016 114.159C258.271 113.822 258.693 113.657 259.109 113.733C259.524 113.809 259.861 114.113 259.98 114.518L266.294 136.036C266.419 136.46 266.281 136.917 265.944 137.203C265.823 137.306 265.684 137.379 265.537 137.423ZM250.408 127.938L263.44 134.246L258.461 117.278L250.408 127.938Z" fill="#CFEFE4"/>
<path d="M244.983 134.745C244.759 134.811 244.513 134.806 244.282 134.721L222.126 126.559C221.673 126.393 221.379 125.955 221.395 125.473C221.411 124.991 221.735 124.574 222.197 124.438L258.587 113.76C259.049 113.624 259.547 113.801 259.821 114.197C260.095 114.594 260.084 115.121 259.793 115.506L245.56 134.346C245.412 134.543 245.208 134.679 244.983 134.745ZM226.071 125.631L244.277 132.337L255.972 116.857L226.071 125.631Z" fill="#CFEFE4"/>
</g>
<g opacity="0.4">
<path d="M243.822 41.4478L210.345 26.3609C209.937 26.1771 209.684 25.7612 209.709 25.3147C209.733 24.868 210.03 24.4827 210.456 24.3449L227.371 18.873C227.862 18.714 228.397 18.9243 228.649 19.3752L231.405 24.3139L236.931 23.1075C237.436 22.9974 237.947 23.2591 238.154 23.7322L245.259 40.0288C245.437 40.439 245.345 40.9167 245.027 41.2312C244.709 41.5454 244.23 41.6316 243.822 41.4478ZM213.791 25.5406L242.154 38.3222L236.525 25.4114L231.083 26.5997C230.617 26.7014 230.139 26.4862 229.907 26.0699L227.192 21.2055L213.791 25.5406Z" fill="#CFEFE4"/>
<path d="M210.344 26.3606C210.209 26.2997 210.086 26.2107 209.983 26.0959C209.697 25.7769 209.627 25.3198 209.803 24.9296L218.724 5.13365C218.892 4.76082 219.255 4.51468 219.664 4.49708C220.072 4.47964 220.456 4.694 220.655 5.05086L228.649 19.375C228.807 19.658 228.83 19.9967 228.711 20.2982C228.593 20.5995 228.345 20.8322 228.037 20.9318L211.122 26.4037C210.861 26.488 210.585 26.4689 210.344 26.3606ZM219.813 7.98318L212.779 23.5933L226.117 19.2785L219.813 7.98318Z" fill="#CFEFE4"/>
<path d="M243.821 41.4427C243.58 41.3344 243.383 41.1396 243.273 40.8886L236.168 24.5921C236.039 24.2952 236.049 23.9557 236.197 23.6674C236.344 23.3789 236.613 23.1716 236.929 23.1024L252.956 19.603C253.355 19.5159 253.77 19.6613 254.027 19.9788C254.284 20.2964 254.341 20.7319 254.173 21.1048L245.252 40.9007C245.076 41.2909 244.687 41.5409 244.259 41.5382C244.104 41.5372 243.956 41.5037 243.821 41.4427ZM238.679 24.9356L244.281 37.7863L251.316 22.1761L238.679 24.9356Z" fill="#CFEFE4"/>
<path d="M230.403 26.5287C230.196 26.4356 230.019 26.2777 229.903 26.0696L218.761 6.10556C218.534 5.698 218.593 5.19028 218.909 4.84645C219.225 4.50263 219.725 4.39993 220.151 4.59167L253.628 19.6785C254.054 19.8702 254.308 20.3133 254.26 20.7775C254.211 21.2417 253.871 21.6226 253.414 21.7222L231.078 26.5994C230.845 26.6502 230.61 26.6218 230.403 26.5287ZM222.246 7.90979L231.401 24.3137L249.754 20.3063L222.246 7.90979Z" fill="#CFEFE4"/>
</g>
<path d="M122.852 162.81C153.526 162.81 178.392 137.944 178.392 107.27C178.392 76.5965 153.526 51.7305 122.852 51.7305C92.1786 51.7305 67.3125 76.5965 67.3125 107.27C67.3125 137.944 92.1786 162.81 122.852 162.81Z" fill="#CFEFE4"/>
<path d="M177.036 105.124C177.036 125.801 164.525 143.558 146.66 151.235C142.358 153.085 137.745 154.349 132.922 154.929C130.937 155.167 128.918 155.29 126.87 155.29C124.821 155.29 122.802 155.167 120.817 154.929C120.728 154.918 120.64 154.907 120.552 154.896C119.646 154.782 118.748 154.645 117.858 154.483C94.4523 150.238 76.7031 129.753 76.7031 105.124C76.7031 77.4176 99.1629 54.957 126.87 54.957C154.576 54.957 177.036 77.4176 177.036 105.124Z" fill="#94BEAE"/>
<path d="M121.011 142.08C121.54 150.685 126.828 155.251 133.382 154.886C134.287 154.772 135.186 154.635 136.075 154.473C137.837 154.035 139.651 153.259 141.459 152.133C153.314 144.748 153.878 128.108 164.619 119.621C160.324 121.962 154.493 123.103 148.482 124.268C137.671 126.363 126.283 128.536 122.225 137.92C121.684 139.173 121.273 140.554 121.011 142.08Z" fill="#386551"/>
<path d="M122.562 147.355C126.027 153.845 136.219 148.204 139.63 144.874C145.11 139.525 147.025 131.523 148.476 124.277C137.665 126.372 126.277 128.546 122.219 137.93C121.331 141.202 121.192 144.79 122.562 147.355Z" fill="#15452F"/>
<g opacity="0.2">
<path opacity="0.2" d="M177.034 105.121C177.034 125.798 164.523 143.555 146.659 151.233L100.547 105.121H177.034Z" fill="#94BEAE"/>
</g>
<path d="M81.9625 12.7784V55.0622H78.8745V12.7784C78.8745 11.9257 79.5659 11.2344 80.4185 11.2344C80.8444 11.2344 81.231 11.4072 81.5103 11.6865C81.7896 11.9659 81.9625 12.3524 81.9625 12.7784Z" fill="#15452F"/>
<path d="M99.0023 23.6383C99.2083 23.8211 99.0786 24.1614 98.804 24.1614H81.9614V13.3281H98.8749C99.1404 13.3281 99.2746 13.6483 99.0871 13.8374L94.2276 18.7448L94.101 18.8729C94.0463 18.9284 94.0177 19.0002 94.0154 19.0727C94.0115 19.1583 94.0455 19.2448 94.1149 19.3065L99.0023 23.6383Z" fill="#94BEAE"/>
<g opacity="0.3">
<path opacity="0.3" d="M81.9576 12.7784V40.1386H80.4136V11.2344C80.8395 11.2344 81.2261 11.4072 81.5054 11.6865C81.7847 11.9659 81.9576 12.3524 81.9576 12.7784Z" fill="#15452F"/>
</g>
<path d="M94.0149 19.0703C94.011 19.156 94.045 19.2424 94.1144 19.3041L99.0018 23.6359C99.2078 23.8188 99.0782 24.159 98.8035 24.159H81.9609V19.0703H94.0149Z" fill="#386551"/>
<path d="M187.893 63.1136V105.123H65.8442V63.1136C65.8442 58.9439 66.818 54.9956 68.5564 51.4748C69.1953 50.18 69.9368 48.9439 70.7709 47.7757C71.4206 46.866 72.1266 45.9979 72.8836 45.1762C77.8619 39.768 85.0587 36.346 93.0748 36.275C93.1597 36.2734 93.2454 36.2734 93.3303 36.2734H160.407C160.498 36.2734 160.588 36.2734 160.679 36.275C172.169 36.3838 181.972 43.3768 185.97 53.2333C185.974 53.2425 185.978 53.2518 185.982 53.2618C186.44 54.3961 186.822 55.5681 187.121 56.7726C187.625 58.8058 187.893 60.9292 187.893 63.1136Z" fill="#94BEAE"/>
<path d="M120.816 63.1134V105.123H65.8442V63.1134C65.8442 57.4117 67.6652 52.1245 70.7709 47.7769C75.7369 40.823 83.9892 36.2734 93.3303 36.2734C100.921 36.2734 107.792 39.2776 112.765 44.1346C117.74 48.9915 120.816 55.7021 120.816 63.1134Z" fill="#386551"/>
<path d="M187.89 73.8008H120.813V105.127H187.89V73.8008Z" fill="#386551"/>
<path d="M132.922 105.121V154.926C130.937 155.165 128.918 155.288 126.869 155.288C124.821 155.288 122.801 155.165 120.817 154.926V105.121H132.922Z" fill="#386551"/>
<path d="M132.922 105.121H120.817V113.654H132.922V105.121Z" fill="#15452F"/>
<path d="M170.89 101.131C170.89 100.812 171.149 100.553 171.467 100.553V100.037C171.149 100.037 170.89 99.7786 170.89 99.4597C170.89 99.1409 171.149 98.8824 171.467 98.8824V98.366C171.149 98.366 170.89 98.1075 170.89 97.7887C170.89 97.4699 171.149 97.2114 171.467 97.2114V96.6949C171.149 96.6949 170.89 96.4364 170.89 96.1176C170.89 95.7988 171.149 95.5403 171.467 95.5403V95.0239C171.149 95.0239 170.89 94.7654 170.89 94.4466C170.89 94.1277 171.149 93.8692 171.467 93.8692V93.4219H171.02C171.02 93.4247 171.02 93.4274 171.02 93.4301C171.02 93.749 170.762 94.0074 170.443 94.0074C170.124 94.0074 169.865 93.749 169.865 93.4301C169.865 93.4274 169.866 93.4247 169.866 93.4219H169.349C169.349 93.4247 169.349 93.4274 169.349 93.4301C169.349 93.749 169.091 94.0074 168.772 94.0074C168.453 94.0074 168.194 93.749 168.194 93.4301C168.194 93.4274 168.195 93.4247 168.195 93.4219H167.678C167.678 93.4247 167.678 93.4274 167.678 93.4301C167.678 93.749 167.42 94.0074 167.101 94.0074C166.782 94.0074 166.523 93.749 166.523 93.4301C166.523 93.4274 166.524 93.4247 166.524 93.4219H166.007C166.007 93.4247 166.007 93.4274 166.007 93.4301C166.007 93.749 165.749 94.0074 165.43 94.0074C165.111 94.0074 164.852 93.749 164.852 93.4301C164.852 93.4274 164.853 93.4247 164.853 93.4219H164.336C164.336 93.4247 164.336 93.4274 164.336 93.4301C164.336 93.749 164.077 94.0074 163.759 94.0074C163.44 94.0074 163.181 93.749 163.181 93.4301C163.181 93.4274 163.182 93.4247 163.182 93.4219H162.734V93.8692C163.053 93.8692 163.311 94.1277 163.311 94.4466C163.311 94.7654 163.053 95.0239 162.734 95.0239V95.5403C163.053 95.5403 163.311 95.7988 163.311 96.1176C163.311 96.4364 163.053 96.6949 162.734 96.6949V97.2114C163.053 97.2114 163.311 97.4699 163.311 97.7887C163.311 98.1075 163.053 98.366 162.734 98.366V98.8824C163.053 98.8824 163.311 99.1409 163.311 99.4597C163.311 99.7786 163.053 100.037 162.734 100.037V100.553C163.053 100.553 163.311 100.812 163.311 101.131C163.311 101.45 163.053 101.708 162.734 101.708V102.155H163.181C163.181 101.837 163.44 101.578 163.759 101.578C164.077 101.578 164.336 101.837 164.336 102.155H164.852C164.852 101.837 165.111 101.578 165.43 101.578C165.748 101.578 166.007 101.837 166.007 102.155H166.523C166.523 101.837 166.782 101.578 167.101 101.578C167.42 101.578 167.678 101.837 167.678 102.155H168.194C168.194 101.837 168.453 101.578 168.772 101.578C169.091 101.578 169.349 101.837 169.349 102.155H169.865C169.865 101.837 170.124 101.578 170.443 101.578C170.762 101.578 171.02 101.837 171.02 102.155H171.467V101.708C171.149 101.708 170.89 101.45 170.89 101.131Z" fill="white"/>
<path d="M184.066 101.131C184.066 100.812 184.324 100.553 184.643 100.553V100.037C184.324 100.037 184.066 99.7786 184.066 99.4597C184.066 99.1409 184.324 98.8824 184.643 98.8824V98.366C184.324 98.366 184.066 98.1075 184.066 97.7887C184.066 97.4699 184.324 97.2114 184.643 97.2114V96.6949C184.324 96.6949 184.066 96.4364 184.066 96.1176C184.066 95.7988 184.324 95.5403 184.643 95.5403V95.0239C184.324 95.0239 184.066 94.7654 184.066 94.4466C184.066 94.1277 184.324 93.8692 184.643 93.8692V93.4219H184.196C184.196 93.4247 184.196 93.4274 184.196 93.4301C184.196 93.749 183.937 94.0074 183.619 94.0074C183.3 94.0074 183.041 93.749 183.041 93.4301C183.041 93.4274 183.042 93.4247 183.042 93.4219H182.524C182.524 93.4247 182.525 93.4274 182.525 93.4301C182.525 93.749 182.266 94.0074 181.948 94.0074C181.629 94.0074 181.37 93.749 181.37 93.4301C181.37 93.4274 181.371 93.4247 181.371 93.4219H180.853C180.853 93.4247 180.854 93.4274 180.854 93.4301C180.854 93.749 180.595 94.0074 180.276 94.0074C179.958 94.0074 179.699 93.749 179.699 93.4301C179.699 93.4274 179.699 93.4247 179.699 93.4219H179.182C179.182 93.4247 179.183 93.4274 179.183 93.4301C179.183 93.749 178.924 94.0074 178.605 94.0074C178.287 94.0074 178.028 93.749 178.028 93.4301C178.028 93.4274 178.028 93.4247 178.028 93.4219H177.511C177.511 93.4247 177.512 93.4274 177.512 93.4301C177.512 93.749 177.253 94.0074 176.934 94.0074C176.615 94.0074 176.357 93.749 176.357 93.4301C176.357 93.4274 176.357 93.4247 176.357 93.4219H175.91V93.8692C176.228 93.8692 176.487 94.1277 176.487 94.4466C176.487 94.7654 176.228 95.0239 175.91 95.0239V95.5403C176.228 95.5403 176.487 95.7988 176.487 96.1176C176.487 96.4364 176.228 96.6949 175.91 96.6949V97.2114C176.228 97.2114 176.487 97.4699 176.487 97.7887C176.487 98.1075 176.228 98.366 175.91 98.366V98.8824C176.228 98.8824 176.487 99.1409 176.487 99.4597C176.487 99.7786 176.228 100.037 175.91 100.037V100.553C176.228 100.553 176.487 100.812 176.487 101.131C176.487 101.45 176.228 101.708 175.91 101.708V102.155H176.357C176.357 101.837 176.616 101.578 176.934 101.578C177.253 101.578 177.512 101.837 177.512 102.155H178.028C178.028 101.837 178.287 101.578 178.605 101.578C178.924 101.578 179.183 101.837 179.183 102.155H179.699C179.699 101.837 179.958 101.578 180.276 101.578C180.595 101.578 180.854 101.837 180.854 102.155H181.37C181.37 101.837 181.629 101.578 181.948 101.578C182.266 101.578 182.525 101.837 182.525 102.155H183.041C183.041 101.837 183.3 101.578 183.619 101.578C183.937 101.578 184.196 101.837 184.196 102.155H184.643V101.708C184.324 101.708 184.066 101.45 184.066 101.131Z" fill="white"/>
<path d="M120.816 67.3047H84.8521V93.8608H120.816V67.3047Z" fill="white"/>
<path d="M99.1229 72.8835H93.1864C92.8637 72.8835 92.6021 72.6219 92.6021 72.2992C92.6021 71.9765 92.8636 71.7148 93.1864 71.7148H99.1229C99.4456 71.7148 99.7073 71.9764 99.7073 72.2992C99.7073 72.6219 99.4456 72.8835 99.1229 72.8835Z" fill="#25543E"/>
<path d="M116.062 82.2663H93.1874C92.8647 82.2663 92.603 82.0048 92.603 81.682C92.603 81.3593 92.8646 81.0977 93.1874 81.0977H116.062C116.384 81.0977 116.646 81.3592 116.646 81.682C116.646 82.0047 116.384 82.2663 116.062 82.2663Z" fill="#25543E"/>
<path d="M116.061 79.4812H93.1864C92.8637 79.4812 92.6021 79.2196 92.6021 78.8968C92.6021 78.5742 92.8636 78.3125 93.1864 78.3125H116.061C116.383 78.3125 116.645 78.5741 116.645 78.8968C116.645 79.2196 116.383 79.4812 116.061 79.4812Z" fill="#25543E"/>
<path d="M116.061 85.0476H93.1864C92.8637 85.0476 92.6021 84.786 92.6021 84.4632C92.6021 84.1406 92.8636 83.8789 93.1864 83.8789H116.061C116.383 83.8789 116.645 84.1405 116.645 84.4632C116.645 84.786 116.383 85.0476 116.061 85.0476Z" fill="#25543E"/>
<g opacity="0.2">
<path opacity="0.2" d="M112.764 44.1346C107.791 39.2776 100.92 36.2734 93.3294 36.2734C83.9883 36.2734 75.7361 40.823 70.77 47.7769L120.815 90.8595V63.1135C120.815 55.7021 117.739 48.9915 112.764 44.1346Z" fill="#25543E"/>
</g>
<path d="M171.465 48.1294C177.976 48.1294 183.254 42.8511 183.254 36.3401C183.254 29.829 177.976 24.5508 171.465 24.5508C164.954 24.5508 159.676 29.829 159.676 36.3401C159.676 42.8511 164.954 48.1294 171.465 48.1294Z" fill="#F7B193"/>
<path d="M170.375 31.875C170.375 32.1734 170.494 32.4595 170.705 32.6705C170.915 32.8815 171.202 33 171.5 33C171.798 33 172.085 32.8815 172.295 32.6705C172.506 32.4595 172.625 32.1734 172.625 31.875C172.625 31.5766 172.506 31.2905 172.295 31.0795C172.085 30.8685 171.798 30.75 171.5 30.75C171.202 30.75 170.915 30.8685 170.705 31.0795C170.494 31.2905 170.375 31.5766 170.375 31.875ZM172.062 34.5H170.938C170.834 34.5 170.75 34.5844 170.75 34.6875V41.0625C170.75 41.1656 170.834 41.25 170.938 41.25H172.062C172.166 41.25 172.25 41.1656 172.25 41.0625V34.6875C172.25 34.5844 172.166 34.5 172.062 34.5Z" fill="white"/>
<path d="M116.375 82.875C116.375 83.1734 116.494 83.4595 116.705 83.6705C116.915 83.8815 117.202 84 117.5 84C117.798 84 118.085 83.8815 118.295 83.6705C118.506 83.4595 118.625 83.1734 118.625 82.875C118.625 82.5766 118.506 82.2905 118.295 82.0795C118.085 81.8685 117.798 81.75 117.5 81.75C117.202 81.75 116.915 81.8685 116.705 82.0795C116.494 82.2905 116.375 82.5766 116.375 82.875ZM118.062 85.5H116.938C116.834 85.5 116.75 85.5844 116.75 85.6875V92.0625C116.75 92.1656 116.834 92.25 116.938 92.25H118.062C118.166 92.25 118.25 92.1656 118.25 92.0625V85.6875C118.25 85.5844 118.166 85.5 118.062 85.5Z" fill="#212224"/>
<path d="M171.466 51.7882C162.951 51.7882 156.023 44.8605 156.023 36.3453C156.023 27.8299 162.951 20.9023 171.466 20.9023C179.982 20.9023 186.909 27.83 186.909 36.3453C186.909 44.8605 179.982 51.7882 171.466 51.7882ZM171.466 22.6441C163.912 22.6441 157.765 28.7904 157.765 36.3453C157.765 43.9001 163.912 50.0464 171.466 50.0464C179.021 50.0464 185.168 43.9001 185.168 36.3453C185.168 28.7903 179.021 22.6441 171.466 22.6441Z" fill="#F7B193"/>
<path d="M121.253 63.5952C121.253 59.9019 120.512 56.3183 119.05 52.9441C117.641 49.6893 115.624 46.7677 113.056 44.2604C110.492 41.7564 107.506 39.7908 104.182 38.4179C100.743 36.9976 97.0921 36.2773 93.3297 36.2773C88.7614 36.2773 84.2285 37.3809 80.2214 39.4687C76.3379 41.492 72.9509 44.4298 70.4269 47.9643C67.1426 52.5619 65.4066 57.967 65.4066 63.5952V99.19H47.5469V105.127H120.816V105.127H121.253V63.5952ZM69.7446 63.5952C69.7446 58.8765 71.2011 54.3433 73.9569 50.4856C76.086 47.5042 78.9453 45.0249 82.2257 43.3158C85.6166 41.5492 89.4563 40.6153 93.3297 40.6153C99.6393 40.6153 105.568 43.012 110.025 47.364C114.468 51.7021 116.915 57.4664 116.915 63.5951V99.1899H69.7444V63.5952H69.7446Z" fill="#15452F"/>
</svg>
