<svg xmlns="http://www.w3.org/2000/svg" width="152" height="152" fill="none" viewBox="0 0 152 152"><circle cx="76" cy="76" r="76" fill="#F8F8F8"/><path fill="#E8E7E9" d="M101.003 62.5007L75.9974 53.5703L50.9922 62.5007H101.003Z"/><path fill="#E8E7E9" d="M44.5 64.75H107.5V67H44.5V64.75Z"/><path fill="#E8E7E9" d="M44.5 107.5H52.375V104.125C52.375 103.827 52.4935 103.54 52.7045 103.33C52.9155 103.119 53.2016 103 53.5 103H54.625V100.75H44.5V107.5Z"/><path fill="#E8E7E9" d="M62.5 78.25C62.2017 78.2503 61.9158 78.369 61.7049 78.5799C61.494 78.7908 61.3753 79.0767 61.375 79.375V82.75H63.625V79.375C63.6247 79.0767 63.506 78.7908 63.2951 78.5799C63.0842 78.369 62.7983 78.2503 62.5 78.25Z"/><path fill="#E8E7E9" d="M107.5 100.75H97.375V103H98.5C98.7984 103 99.0845 103.119 99.2955 103.33C99.5065 103.54 99.625 103.827 99.625 104.125V107.5H107.5V100.75Z"/><path fill="#CFCFD3" d="M45.625 94H54.625V79.375C54.6246 77.6529 55.1889 75.9782 56.2313 74.6075C57.2737 73.2367 58.7367 72.2456 60.3963 71.7858C62.0559 71.3261 63.8204 71.4231 65.4196 72.0621C67.0187 72.7011 68.3642 73.8468 69.25 75.3236C69.949 74.1575 70.9382 73.1924 72.1212 72.5223C73.3041 71.8523 74.6405 71.5001 76 71.5001C77.3595 71.5001 78.6959 71.8523 79.8788 72.5223C81.0618 73.1924 82.051 74.1575 82.75 75.3236C83.6358 73.8468 84.9813 72.7011 86.5804 72.0621C88.1796 71.4231 89.9441 71.3261 91.6037 71.7858C93.2633 72.2456 94.7263 73.2367 95.7687 74.6075C96.8111 75.9782 97.3754 77.6529 97.375 79.375V94H106.375V69.25H45.625V94Z"/><path fill="#E8E7E9" d="M97.375 96.25H106.375V98.5H97.375V96.25Z"/><path fill="#E8E7E9" d="M56.875 100.75H95.125V103H56.875V100.75Z"/><path fill="#E8E7E9" d="M54.625 105.25H97.375V107.5H54.625V105.25Z"/><path fill="#E8E7E9" d="M89.5 89.5C89.2017 89.5003 88.9158 89.619 88.7049 89.8299C88.494 90.0408 88.3753 90.3267 88.375 90.625V94H90.625V90.625C90.6247 90.3267 90.506 90.0408 90.2951 89.8299C90.0842 89.619 89.7983 89.5003 89.5 89.5Z"/><path fill="#E8E7E9" d="M62.5 89.5C62.2017 89.5003 61.9158 89.619 61.7049 89.8299C61.494 90.0408 61.3753 90.3267 61.375 90.625V94H63.625V90.625C63.6247 90.3267 63.506 90.0408 63.2951 89.8299C63.0842 89.619 62.7983 89.5003 62.5 89.5Z"/><path fill="#E8E7E9" d="M45.625 96.25H54.625V98.5H45.625V96.25Z"/><path fill="#E8E7E9" d="M74.875 89.5H77.125V98.5H74.875V89.5Z"/><path fill="#E8E7E9" d="M95.125 79.375C95.125 77.8832 94.5324 76.4524 93.4775 75.3975C92.4226 74.3426 90.9918 73.75 89.5 73.75C88.0082 73.75 86.5774 74.3426 85.5225 75.3975C84.4676 76.4524 83.875 77.8832 83.875 79.375V98.5H95.125V79.375ZM92.875 95.125C92.875 95.4234 92.7565 95.7095 92.5455 95.9205C92.3345 96.1315 92.0484 96.25 91.75 96.25H87.25C86.9516 96.25 86.6655 96.1315 86.4545 95.9205C86.2435 95.7095 86.125 95.4234 86.125 95.125V90.625C86.125 89.7299 86.4806 88.8715 87.1135 88.2385C87.7465 87.6056 88.6049 87.25 89.5 87.25C90.3951 87.25 91.2535 87.6056 91.8865 88.2385C92.5194 88.8715 92.875 89.7299 92.875 90.625V95.125ZM92.875 83.875C92.875 84.1734 92.7565 84.4595 92.5455 84.6705C92.3345 84.8815 92.0484 85 91.75 85H87.25C86.9516 85 86.6655 84.8815 86.4545 84.6705C86.2435 84.4595 86.125 84.1734 86.125 83.875V79.375C86.125 78.4799 86.4806 77.6215 87.1135 76.9885C87.7465 76.3556 88.6049 76 89.5 76C90.3951 76 91.2535 76.3556 91.8865 76.9885C92.5194 77.6215 92.875 78.4799 92.875 79.375V83.875Z"/><path fill="#E8E7E9" d="M89.5 78.25C89.2017 78.2503 88.9158 78.369 88.7049 78.5799C88.494 78.7908 88.3753 79.0767 88.375 79.375V82.75H90.625V79.375C90.6247 79.0767 90.506 78.7908 90.2951 78.5799C90.0842 78.369 89.7983 78.2503 89.5 78.25Z"/><path fill="#E8E7E9" d="M62.5 73.75C61.0087 73.7517 59.5789 74.3448 58.5244 75.3994C57.4698 76.4539 56.8767 77.8837 56.875 79.375V98.5H68.125V79.375C68.1233 77.8837 67.5302 76.4539 66.4756 75.3994C65.4211 74.3448 63.9913 73.7517 62.5 73.75ZM65.875 95.125C65.875 95.4234 65.7565 95.7095 65.5455 95.9205C65.3345 96.1315 65.0484 96.25 64.75 96.25H60.25C59.9516 96.25 59.6655 96.1315 59.4545 95.9205C59.2435 95.7095 59.125 95.4234 59.125 95.125V90.625C59.125 89.7299 59.4806 88.8715 60.1135 88.2385C60.7464 87.6056 61.6049 87.25 62.5 87.25C63.3951 87.25 64.2536 87.6056 64.8865 88.2385C65.5194 88.8715 65.875 89.7299 65.875 90.625V95.125ZM65.875 83.875C65.875 84.1734 65.7565 84.4595 65.5455 84.6705C65.3345 84.8815 65.0484 85 64.75 85H60.25C59.9516 85 59.6655 84.8815 59.4545 84.6705C59.2435 84.4595 59.125 84.1734 59.125 83.875V79.375C59.125 78.4799 59.4806 77.6215 60.1135 76.9885C60.7464 76.3556 61.6049 76 62.5 76C63.3951 76 64.2536 76.3556 64.8865 76.9885C65.5194 77.6215 65.875 78.4799 65.875 79.375V83.875Z"/><path fill="#E8E7E9" d="M81.625 98.5V79.375C81.625 77.8832 81.0324 76.4524 79.9775 75.3975C78.9226 74.3426 77.4918 73.75 76 73.75C74.5082 73.75 73.0774 74.3426 72.0225 75.3975C70.9676 76.4524 70.375 77.8832 70.375 79.375V98.5H72.625V88.375C72.625 88.0766 72.7435 87.7905 72.9545 87.5795C73.1655 87.3685 73.4516 87.25 73.75 87.25H78.25C78.5484 87.25 78.8345 87.3685 79.0455 87.5795C79.2565 87.7905 79.375 88.0766 79.375 88.375V98.5H81.625ZM78.25 85H73.75C73.4516 85 73.1655 84.8815 72.9545 84.6705C72.7435 84.4595 72.625 84.1734 72.625 83.875V79.375C72.625 78.4799 72.9806 77.6215 73.6135 76.9885C74.2464 76.3556 75.1049 76 76 76C76.8951 76 77.7535 76.3556 78.3865 76.9885C79.0194 77.6215 79.375 78.4799 79.375 79.375V83.875C79.375 84.1734 79.2565 84.4595 79.0455 84.6705C78.8345 84.8815 78.5484 85 78.25 85Z"/><path fill="#E8E7E9" d="M76 78.25C75.7017 78.2503 75.4158 78.369 75.2049 78.5799C74.994 78.7908 74.8753 79.0767 74.875 79.375V82.75H77.125V79.375C77.1247 79.0767 77.006 78.7908 76.7951 78.5799C76.5842 78.369 76.2983 78.2503 76 78.25Z"/><path fill="#E8E7E9" d="M75.6217 51.3155C75.8663 51.2281 76.1337 51.2281 76.3783 51.3155L77.125 51.5827V49H81.625V44.5H74.875V51.5823L75.6217 51.3155Z"/></svg>