<svg xmlns="http://www.w3.org/2000/svg" width="152" height="152" fill="none" viewBox="0 0 152 152"><circle cx="76" cy="76" r="76" fill="#F8F8F8"/><g clip-path="url(#clip0)"><path fill="#E8E7E9" d="M75.9993 64.7473C77.0452 63.3482 78.4037 62.2129 79.9663 61.432C81.5289 60.6512 83.2524 60.2464 84.9993 60.25C85.0006 57.92 84.0977 55.6804 82.4807 54.0028C80.8637 52.3253 78.6588 51.3407 76.3303 51.2563C76.2219 51.2525 76.11 51.25 75.9993 51.25C73.6132 51.2527 71.3255 52.2018 69.6383 53.889C67.951 55.5762 67.002 57.8639 66.9993 60.25C68.7462 60.2464 70.4697 60.6512 72.0323 61.432C73.5949 62.2129 74.9534 63.3482 75.9993 64.7473ZM78.2493 56.875H80.4993V59.125H78.2493V56.875ZM73.7493 59.125H71.4993V56.875H73.7493V59.125ZM74.8743 53.5H77.1243V55.75H74.8743V53.5ZM73.7493 46.75C73.7493 46.305 73.8813 45.87 74.1285 45.5C74.3757 45.13 74.7271 44.8416 75.1383 44.6713C75.5494 44.501 76.0018 44.4564 76.4383 44.5432C76.8747 44.6301 77.2756 44.8443 77.5903 45.159C77.905 45.4737 78.1192 45.8746 78.2061 46.311C78.2929 46.7475 78.2483 47.1999 78.078 47.611C77.9077 48.0222 77.6193 48.3736 77.2493 48.6208C76.8793 48.868 76.4443 49 75.9993 49C75.4028 48.9993 74.8309 48.762 74.4091 48.3402C73.9873 47.9184 73.75 47.3465 73.7493 46.75ZM77.1243 91.75V103H74.8743V91.75H77.1243ZM73.9743 69.25H58.2858C58.73 67.5296 59.6735 65.9792 60.9975 64.7942C62.3214 63.6092 63.9665 62.8425 65.7254 62.5909C67.4843 62.3393 69.2784 62.6139 70.8814 63.3802C72.4845 64.1466 73.8249 65.3702 74.7337 66.8971C74.3942 67.6508 74.139 68.4399 73.9743 69.25ZM69.2493 105.25H82.7493C83.4471 105.251 84.1275 105.468 84.6972 105.87C85.267 106.273 85.6981 106.842 85.9315 107.5H66.0671C66.3005 106.842 66.7316 106.273 67.3014 105.87C67.8711 105.468 68.5515 105.251 69.2493 105.25ZM80.5932 49.978C80.2401 49.8196 79.879 49.6797 79.5113 49.5588C80.131 48.7873 80.4776 47.8321 80.4969 46.8427C81.4939 46.2517 82.5993 45.867 83.7477 45.7112C83.4404 47.0814 82.6945 48.314 81.6232 49.2219C81.3014 49.502 80.9569 49.7549 80.5932 49.978ZM55.7493 71.5H96.2493V73.75C96.2446 77.9257 94.5837 81.929 91.631 84.8817C88.6783 87.8344 84.675 89.4953 80.4993 89.5H71.4993C67.3236 89.4953 63.3203 87.8344 60.3676 84.8817C57.4149 81.929 55.754 77.9257 55.7493 73.75V71.5ZM98.692 44.9659L100.283 46.5573L87.2295 59.6111C87.1787 58.6957 87.0155 57.79 86.7435 56.9145L98.692 44.9659ZM86.674 62.6547C88.349 62.9801 89.8981 63.7717 91.1432 64.9384C92.3882 66.1051 93.2786 67.5997 93.712 69.25H76.2834C76.7822 67.3178 77.9092 65.6062 79.4869 64.3843C81.0646 63.1625 83.0037 62.4996 84.9993 62.5C85.3144 62.4999 85.6293 62.5163 85.9428 62.5492C86.1794 62.573 86.4261 62.6086 86.674 62.6547ZM65.1712 57.1928C64.9178 58.0896 64.7775 59.0146 64.7535 59.9463L58.7615 54.0189L54.0618 58.668L51.7246 56.3561L58.0035 50.1039L65.1712 57.1928Z"/><path fill="#CFCFD3" d="M75.9993 64.7473C77.0452 63.3482 78.4037 62.2129 79.9663 61.432C81.5289 60.6512 83.2524 60.2464 84.9993 60.25C85.0006 57.92 84.0977 55.6804 82.4807 54.0028C80.8637 52.3253 78.6588 51.3407 76.3303 51.2563C76.2219 51.2525 76.11 51.25 75.9993 51.25C73.6132 51.2527 71.3255 52.2018 69.6383 53.889C67.951 55.5762 67.002 57.8639 66.9993 60.25C68.7462 60.2464 70.4697 60.6512 72.0323 61.432C73.5949 62.2129 74.9534 63.3482 75.9993 64.7473ZM78.2493 56.875H80.4993V59.125H78.2493V56.875ZM73.7493 59.125H71.4993V56.875H73.7493V59.125ZM74.8743 53.5H77.1243V55.75H74.8743V53.5Z"/></g><defs><clipPath id="clip0"><rect width="72" height="72" fill="#fff" transform="translate(40 40)"/></clipPath></defs></svg>