<svg xmlns="http://www.w3.org/2000/svg" width="330" height="182" fill="none" viewBox="0 0 330 182"><rect width="328" height="180" fill="#F8F8F8" transform="translate(1 1)"/><path stroke="#F8F8F8" d="M1 5C1 2.79086 2.79086 1 5 1H325C327.209 1 329 2.79086 329 5V181H1V5Z"/><g clip-path="url(#clip0)"><path fill="#E8E7E9" d="M161.183 57.5329V59.5782C164.021 59.386 165.541 59.6162 165.699 59.642C166.612 59.7912 167.393 60.3814 167.786 61.2191L171.774 69.7203C172.257 69.8329 172.717 70.071 173.097 70.4418C173.578 70.9108 174.154 71.278 174.807 71.4372C176.11 71.7549 177.403 71.3928 178.316 70.5042C179.259 69.5877 180.698 69.3546 181.81 70.0574C183.399 71.0614 183.57 73.1885 182.323 74.435C180.565 76.1942 178.226 77.1631 175.738 77.1631C175.578 77.1631 175.419 77.1588 175.26 77.1509L180.622 88.5803C180.849 89.0622 181.063 89.5477 181.267 90.0354C187.305 88.1313 194.172 89.5456 198.971 94.2896C200.044 95.3496 200.163 97.0808 199.16 98.2082C198.6 98.8379 197.83 99.1527 197.059 99.1527C196.342 99.1527 195.623 98.8788 195.076 98.3308C191.823 95.0792 187.154 94.0903 183.037 95.3589C184.599 101.584 184.495 108.008 182.883 114.032C183.642 114.283 184.414 114.507 185.199 114.702C186.11 114.928 187.061 114.93 187.973 114.705C202.006 111.234 211.999 98.6141 211.999 83.9933V57.5329C211.999 56.2226 211.19 55.0479 209.963 54.5868C206.099 53.1345 198.629 51.1602 186.592 51.1602C174.553 51.1602 167.083 53.1352 163.218 54.5875C161.992 55.0479 161.183 56.2226 161.183 57.5329ZM192.205 70.4669C193.301 69.3711 195.077 69.3711 196.174 70.4669C196.872 71.1654 197.801 71.5505 198.789 71.5505C199.777 71.5505 200.707 71.1654 201.405 70.4669C202.501 69.3704 204.278 69.3704 205.374 70.4669C206.47 71.5627 206.47 73.3391 205.374 74.435C203.615 76.1942 201.277 77.1631 198.789 77.1631C196.302 77.1631 193.963 76.1942 192.204 74.435C191.109 73.3391 191.109 71.5627 192.205 70.4669Z"/><path fill="#CFCFD3" d="M175.543 90.9642L164.244 66.8819C163.724 65.7731 162.572 65.1055 161.351 65.198C157.271 65.5064 149.618 66.8596 138.595 72.0311C127.697 77.1445 121.773 82.1051 118.891 85.0612C117.976 85.9993 117.742 87.4064 118.299 88.5925L129.538 112.548C135.747 125.784 150.156 132.965 164.335 130.146C165.252 129.964 166.109 129.562 166.835 128.973C178.066 119.871 181.753 104.201 175.543 90.9642ZM152.836 89.1691C154.581 84.3398 159.929 81.8297 164.759 83.5753C166.216 84.1017 166.971 85.7103 166.444 87.1683C165.918 88.6255 164.309 89.3807 162.851 88.8536C160.933 88.1608 158.808 89.1577 158.114 91.0761C157.701 92.2192 156.624 92.9299 155.475 92.9299C155.158 92.9299 154.836 92.8762 154.521 92.7621C153.064 92.235 152.309 90.6264 152.836 89.1691ZM141.983 98.6443C141.054 98.3087 140.049 98.3546 139.154 98.7748C138.26 99.1944 137.582 99.9373 137.246 100.867C136.833 102.01 135.755 102.721 134.606 102.721C134.29 102.721 133.968 102.666 133.653 102.553C132.195 102.026 131.441 100.418 131.967 98.9599C132.813 96.6205 134.518 94.7501 136.77 93.6937C139.023 92.6373 141.551 92.5204 143.89 93.366C145.348 93.8924 146.103 95.501 145.576 96.959C145.049 98.4162 143.44 99.1707 141.983 98.6443ZM151.406 116.988C149.423 116.988 147.409 116.651 145.438 115.939C143.98 115.412 143.226 113.804 143.752 112.346C144.28 110.888 145.887 110.133 147.345 110.66C153.568 112.909 160.46 109.675 162.708 103.453C163.235 101.995 164.843 101.24 166.301 101.767C167.759 102.294 168.513 103.903 167.987 105.361C165.399 112.523 158.617 116.988 151.406 116.988Z"/></g><defs><clipPath id="clip0"><rect width="94" height="94" fill="#fff" transform="translate(118 44)"/></clipPath></defs></svg>