<svg xmlns="http://www.w3.org/2000/svg" width="152" height="152" fill="none" viewBox="0 0 152 152"><circle cx="76" cy="76" r="76" fill="#F8F8F8"/><g clip-path="url(#clip0)"><path fill="#E8E7E9" d="M66.9378 64.7762L83.1378 84.0582C83.3138 83.7606 83.6288 83.4773 84.1683 83.2725L63.4789 44.9472C62.5159 43.1509 60.2795 42.4757 58.4829 43.4387C56.6859 44.4015 56.011 46.6379 56.9737 48.4344L66.9378 64.7762Z"/><path fill="#E8E7E9" d="M106.171 95.8445L105.999 95.8048C105.916 95.7857 105.835 95.7698 105.753 95.7546L105.5 95.7046C103.649 95.3111 101.754 95.1104 99.8737 95.1104L99.4752 95.1127C97.1436 95.1475 94.9807 95.3513 92.9365 95.7098C94.1667 97.1222 95.9858 99.3736 93.5434 101.512C93.5049 101.546 93.4661 101.568 93.4261 101.6C92.7817 102.13 92.1027 102.407 91.4033 102.407C90.6299 102.407 89.9631 102.086 89.3689 101.628C88.7732 101.168 88.2487 100.569 87.7641 100.016L85.7636 97.8582C84.5573 98.3937 83.3871 99.0032 82.2519 99.7052C81.4316 100.213 80.6173 100.734 79.8057 101.255C78.7649 101.923 77.6877 102.613 76.6036 103.268C75.9549 103.659 75.2981 104.034 74.6406 104.408C74.0818 104.727 73.5227 105.044 72.9385 105.393C72.1829 105.843 71.3976 106.306 70.5215 106.642C70.5726 106.758 70.7044 107.014 70.8966 107.287C71.1533 107.652 71.9158 108.438 72.7301 108.715C73.1678 108.864 73.6781 108.956 74.2599 108.989C77.3949 109.174 81.7036 107.643 81.8822 107.585C84.2737 106.674 90.8702 105.501 90.9287 105.495C96.0777 104.744 102.344 104.527 102.402 104.519L102.442 104.517C102.464 104.516 103.396 104.388 104.23 103.71C105.415 102.747 105.752 101.334 105.772 101.25C106.004 100.313 106.146 99.4117 106.235 98.5698C106.32 97.5333 106.32 96.6103 106.29 95.8699C106.255 95.8633 106.2 95.8509 106.171 95.8445Z"/><path fill="#CFCFD3" d="M110.595 95.0623C110.437 94.6526 110.24 94.3156 110.24 94.3156C109.278 92.4824 108.187 90.9522 107.017 89.6702C106.715 89.3381 106.498 89.178 106.371 89.178C106.198 89.178 106.204 89.489 106.415 90.0796C106.55 90.4558 106.659 90.8114 106.748 91.1387C106.894 91.6745 106.917 91.9445 106.843 91.9445C106.776 91.9445 106.626 91.7097 106.415 91.2337C105.942 90.1636 105.416 89.2135 104.872 88.3751C104.287 87.4735 103.021 86.2948 102.077 85.7838C101.584 85.5164 101.086 85.2754 100.59 85.0611C100.307 84.9395 100.089 84.8807 99.9348 84.8807C99.5506 84.8807 99.5754 85.2409 100.036 85.8537C101.123 87.3025 101.864 88.821 102.331 89.9636C102.545 90.4907 102.598 90.7564 102.515 90.7564C102.442 90.7564 102.262 90.5438 101.993 90.1158C100.532 87.7783 98.964 86.0809 97.475 84.8484C96.6483 84.1628 95.0526 83.5407 93.9821 83.4522C93.5353 83.4146 93.0978 83.3923 92.6772 83.3811C92.6396 83.3799 92.6025 83.3799 92.5661 83.3799C91.6008 83.3799 91.5746 83.7607 92.4548 84.3067C95.1458 85.971 96.5284 88.1777 97.2117 89.7238C97.445 90.2533 97.4838 90.5243 97.3741 90.5243C97.2792 90.5243 97.0739 90.3247 96.7911 89.9188C94.8002 87.0839 92.4113 85.3779 90.1998 84.3514C89.3855 83.9732 88.3811 83.7696 87.7769 83.7696C87.6584 83.7696 87.5557 83.7774 87.4736 83.7936C86.8931 83.9049 86.5658 83.9958 86.5658 83.9958C85.9739 84.1169 85.3968 84.2534 84.8351 84.4004C84.8052 84.4078 84.7828 84.418 84.755 84.4268C83.9036 84.6764 84.0249 85.057 84.9988 85.4158C85.1311 85.4641 85.2486 85.524 85.3744 85.5766C88.3904 86.8055 90.265 88.9775 91.2663 90.5095C91.5872 91.0012 91.6821 91.2539 91.5834 91.2539C91.5011 91.2539 91.2863 91.0793 90.9568 90.7196C89.4252 89.0534 87.8062 87.9196 86.2185 87.1414C85.9313 87.0018 85.6456 86.8714 85.3611 86.7541L87.1741 88.9123L91.9509 94.5967C94.3658 94.1198 96.8524 93.8826 99.4198 93.8438C99.5594 93.8412 99.6967 93.8412 99.8368 93.8412C101.822 93.8412 103.789 94.0513 105.73 94.4645C105.904 94.5004 106.078 94.5282 106.252 94.5689C106.453 94.6153 107.796 94.9124 108.968 95.2198C109.43 95.3411 109.833 95.407 110.125 95.407C110.495 95.4046 110.685 95.2983 110.595 95.0623Z"/><path fill="#E8E7E9" d="M77.2521 88.6473L76.5223 87.8594C76.1014 88.25 76.3508 88.5576 77.2129 88.6423C77.2255 88.6435 77.2386 88.6461 77.2521 88.6473Z"/><path fill="#CFCFD3" d="M75.9247 99.8469C75.1269 99.742 74.3352 99.6942 73.5577 99.6942C71.4517 99.6942 69.4555 100.038 67.7251 100.5C67.0079 100.691 66.3365 100.9 65.719 101.117C64.7048 101.47 63.5154 102.505 62.972 103.311C62.4285 104.117 62.7981 104.837 63.8413 105.094C65.207 105.433 66.5356 105.848 67.9706 105.848C68.2378 105.848 68.5075 105.833 68.7842 105.801C69.22 105.751 69.6278 105.627 70.0253 105.476C70.8327 105.174 71.5818 104.725 72.3288 104.28C73.5294 103.566 74.7596 102.901 75.9552 102.179C77.8579 101.031 79.7022 99.7922 81.593 98.6235C82.6671 97.9578 83.7633 97.3971 84.8709 96.8876L78.3798 89.8731C77.4051 89.6885 76.4786 89.5674 75.6281 89.5674C75.6126 89.5674 75.5955 89.5674 75.5808 89.5674C74.5081 89.5674 72.9682 90.1866 72.1584 90.8684C71.5908 91.3454 71.0601 91.8328 70.5658 92.3108C69.894 92.96 70.0024 93.3587 70.743 93.3587C70.8543 93.3587 70.9785 93.3511 71.1177 93.3323C71.7407 93.2511 72.34 93.2147 72.9159 93.2147C77.3454 93.2147 80.3407 95.4055 81.381 96.3054C81.4607 96.3728 81.528 96.4332 81.5842 96.4829C81.6429 96.5355 81.6541 96.5605 81.6244 96.5605C81.598 96.5605 81.5368 96.539 81.4483 96.4946C81.3346 96.4384 81.2223 96.3844 81.1098 96.3333C78.1331 94.8945 75.4502 94.3897 73.15 94.3897C71.8711 94.3897 70.7111 94.546 69.6858 94.7832C68.6396 95.0242 67.2776 96.0219 66.6701 96.9078C66.3246 97.4107 66.0306 97.8741 65.7853 98.2823C65.3176 99.0626 65.4069 99.581 65.9033 99.581C65.9925 99.581 66.0963 99.5636 66.2109 99.5289C66.6805 99.3852 67.1394 99.2627 67.5897 99.1628C68.9053 98.8766 70.134 98.7629 71.2528 98.7629C73.248 98.7629 74.8887 99.1204 76.0356 99.4813C76.8204 99.7273 76.9653 99.8924 76.5102 99.8924C76.3682 99.8957 76.1738 99.8788 75.9247 99.8469Z"/><path fill="#E8E7E9" d="M77.1728 86.7092L77.6241 87.1949L79.3165 89.0222L80.6701 90.4821L86.0885 96.3288L86.3543 96.6161L86.5555 96.8321L86.9652 97.2739L87.0239 97.3377L88.6956 99.1423C89.6324 100.211 90.4617 101.124 91.3983 101.124C91.8053 101.124 92.2323 100.951 92.6957 100.544C92.8868 100.377 93.0378 100.212 93.1527 100.046C93.9632 98.8811 93.01 97.7359 91.835 96.3932L91.4965 95.9912L91.4206 95.9003L91.0345 95.4393L90.573 94.8895L90.2107 94.4566L83.1011 85.996L82.4871 85.2628L81.9088 84.5746L71.3609 72.0213L49.4683 45.9681C48.7396 45.1338 47.7169 44.708 46.6897 44.708C45.8266 44.708 44.9607 45.0089 44.2603 45.6215C42.7266 46.9639 42.5706 49.2955 43.9137 50.8282L76.7199 86.2222L77.1728 86.7092Z"/></g><defs><clipPath id="clip0"><rect width="72" height="72" fill="#fff" transform="translate(40 40)"/></clipPath></defs></svg>