<svg xmlns="http://www.w3.org/2000/svg" width="152" height="152" fill="none" viewBox="0 0 152 152"><circle cx="76" cy="76" r="76" fill="#F8F8F8"/><path fill="#CFCFD3" d="M78.1855 73.0522V47.125C78.1855 46.8266 78.067 46.5405 77.856 46.3295C77.6451 46.1185 77.3589 46 77.0605 46C76.7622 46 76.476 46.1185 76.2651 46.3295C76.0541 46.5405 75.9355 46.8266 75.9355 47.125V73.0522C76.3068 73.0181 76.682 73 77.0605 73C77.4391 73 77.8143 73.0181 78.1855 73.0522Z"/><path fill="#CFCFD3" d="M82.6855 47.125C82.6855 46.8266 82.567 46.5405 82.356 46.3295C82.1451 46.1185 81.8589 46 81.5605 46C81.2622 46 80.976 46.1185 80.7651 46.3295C80.5541 46.5405 80.4355 46.8266 80.4355 47.125V73.4743C81.2127 73.6955 81.9663 73.9922 82.6855 74.3603V47.125Z"/><path fill="#E8E7E9" d="M71.4355 48.25H73.6855V50.5H71.4355V48.25Z"/><path fill="#CFCFD3" d="M87.1855 52.75H84.9355V75.8316C85.6292 75.2569 86.3837 74.7599 87.1855 74.3494V52.75Z"/><path fill="#E8E7E9" d="M92.8142 79.75C92.0655 79.7479 91.3239 79.8965 90.6338 80.1868C89.9436 80.4772 89.3189 80.9035 88.7969 81.4404C88.8587 81.6248 88.9162 81.8113 88.9693 82H97.3142C96.7896 81.3022 96.11 80.7357 95.3291 80.3452C94.5482 79.9548 93.6873 79.751 92.8142 79.75Z"/><path fill="#E8E7E9" d="M89.4355 52.75H108.561V55H89.4355V52.75Z"/><path fill="#CFCFD3" d="M73.6855 52.75H71.4355V74.3605C72.1548 73.9925 72.9084 73.6958 73.6855 73.4746V52.75Z"/><path fill="#E8E7E9" d="M48.9355 84.25H105.186V86.5H48.9355V84.25Z"/><path fill="#E8E7E9" d="M84.9355 48.25H108.561V50.5H84.9355V48.25Z"/><path fill="#E8E7E9" d="M65.8073 104.5H88.3073C92.5865 104.495 96.7043 102.866 99.8292 99.9428C102.954 97.0194 104.854 93.0193 105.144 88.75H48.9707C49.261 93.0193 51.1604 97.0194 54.2854 99.9428C57.4104 102.866 61.5281 104.495 65.8073 104.5Z"/><path fill="#E8E7E9" d="M87.8247 79.2781C88.7499 78.5216 89.8352 77.9856 90.9983 77.7107C92.1614 77.4358 93.3718 77.4293 94.5378 77.6916C95.7038 77.9539 96.7947 78.4781 97.7281 79.2246C98.6614 79.9711 99.4126 80.9201 99.9248 82H102.356C101.653 80.0286 100.359 78.3223 98.6508 77.1141C96.942 75.9059 94.9019 75.2549 92.8091 75.25C90.5313 75.2451 88.3193 76.0136 86.5352 77.4297C87.0203 78.0053 87.452 78.624 87.8247 79.2781Z"/><path fill="#CFCFD3" d="M69.1855 47.125C69.1855 46.8266 69.067 46.5405 68.856 46.3295C68.6451 46.1185 68.3589 46 68.0605 46C67.7622 46 67.476 46.1185 67.2651 46.3295C67.0541 46.5405 66.9355 46.8266 66.9355 47.125V74.35C67.7374 74.7604 68.4919 75.2574 69.1855 75.8322V47.125Z"/><path fill="#E8E7E9" d="M69.9466 81.9999C70.5854 80.6534 71.5931 79.5159 72.8527 78.7193C74.1122 77.9228 75.5719 77.5 77.0622 77.5C78.5525 77.5 80.0122 77.9228 81.2718 78.7193C82.5313 79.5159 83.5391 80.6534 84.1779 81.9999H86.6088C85.9107 80.0258 84.6178 78.3167 82.9082 77.1079C81.1985 75.8991 79.1561 75.25 77.0622 75.25C74.9684 75.25 72.926 75.8991 71.2163 77.1079C69.5066 78.3167 68.2137 80.0258 67.5156 81.9999H69.9466Z"/><path fill="#E8E7E9" d="M60.1855 48.25H64.6855V50.5H60.1855V48.25Z"/><path fill="#E8E7E9" d="M55.377 74.5264L51.6195 69.0361C51.1134 68.2982 50.3352 67.7911 49.4557 67.6262C48.5762 67.4613 47.6672 67.652 46.9281 68.1565L46 68.7919L51.8771 77.3786C52.8608 76.2231 54.0468 75.2566 55.377 74.5264Z"/><path fill="#E8E7E9" d="M70.3105 107.875C70.3109 108.173 70.4295 108.459 70.6404 108.67C70.8513 108.881 71.1373 109 71.4355 109H82.6855C82.9838 109 83.2698 108.881 83.4807 108.67C83.6916 108.459 83.8102 108.173 83.8105 107.875V106.75H70.3105V107.875Z"/><path fill="#E8E7E9" d="M56.8105 82H65.1558C65.209 81.8125 65.2662 81.6266 65.3276 81.4422C64.7609 80.8622 64.0754 80.4118 63.3182 80.1218C62.5609 79.8317 61.7499 79.709 60.9408 79.762C60.1316 79.815 59.3436 80.0425 58.6306 80.4288C57.9177 80.8151 57.2968 81.3511 56.8105 82Z"/><path fill="#E8E7E9" d="M60.1855 52.75H64.6855V55H60.1855V52.75Z"/><path fill="#E8E7E9" d="M51.7656 82H54.1966C54.7083 80.92 55.4593 79.9707 56.3925 79.2242C57.3258 78.4776 58.4168 77.9535 59.5829 77.6915C60.7489 77.4295 61.9593 77.4365 63.1222 77.7121C64.2852 77.9876 65.37 78.5244 66.2946 79.2817C66.6677 78.6261 67.1001 78.0059 67.5862 77.429C65.802 76.0131 63.59 75.2449 61.3122 75.25C59.2195 75.2549 57.1794 75.9059 55.4706 77.1141C53.7619 78.3223 52.4679 80.0287 51.7656 82Z"/><path fill="#E8E7E9" d="M72.5605 82H81.5605C81.0366 81.3014 80.3572 80.7344 79.5761 80.3438C78.7951 79.9533 77.9338 79.75 77.0605 79.75C76.1873 79.75 75.326 79.9533 74.545 80.3438C73.7639 80.7344 73.0845 81.3014 72.5605 82Z"/></svg>