<svg width="152" height="152" viewBox="0 0 152 152" fill="none" xmlns="http://www.w3.org/2000/svg">
  <circle cx="76" cy="76" r="76" fill="#F8F8F8"/>
  <path d="M93.4341 71.1102V71.2634C93.2594 72.7782 92.5133 74.1693 91.348 75.1529C91.2399 73.462 91.3668 71.7643 91.7251 70.1084C91.7251 69.2244 91.7251 68.3993 91.7251 67.5979C91.7251 66.7964 92.6091 66.5371 93.4695 66.5607C93.8673 68.0527 93.8551 69.6245 93.4341 71.1102ZM75.5544 43C83.5573 43 86.716 48.2095 86.8338 48.4217C87.0452 48.7878 87.4365 49.0127 87.8592 49.011H88.1775C88.4486 49.011 94.7542 49.4824 94.7542 58.0864C94.7422 60.2075 94.2633 62.3 93.3516 64.2152C92.6944 64.1768 92.0372 64.2897 91.4305 64.5452C90.4051 55.2223 86.9281 53.0419 86.5038 52.759C85.9517 52.4605 85.2624 52.647 84.9363 53.1833C81.8247 58.2514 74.3286 58.9821 74.3994 58.9821H68.2469C64.605 58.9821 62.3538 60.7619 62.2124 63.6966V64.2859L61.847 64.1917C61.0492 61.8846 60.6196 59.4663 60.5741 57.0256C60.5741 49.6828 67.7166 43 75.5544 43ZM60.7391 71.287C60.7391 71.1691 60.0555 67.0439 60.7391 66.5725C60.9748 66.5725 62.177 66.5135 62.2713 67.3504C62.3302 67.9397 62.2713 68.529 62.5778 71.1809C62.7978 72.4967 62.865 73.8335 62.7781 75.1647C61.6254 74.1822 60.8952 72.7935 60.7391 71.287ZM64.9704 70.957C64.6834 68.6109 64.5496 66.2487 64.5696 63.8852C64.5696 63.2605 64.6875 61.363 68.2469 61.363H74.5054C74.8354 61.363 82.1076 60.6322 86.1149 55.6113C88.8611 59.0411 89.3561 65.7121 89.3679 70.1084C88.9485 71.9031 88.8211 73.7537 88.9907 75.589C89.1204 78.3941 89.2264 80.5981 86.3152 83.2382C85.0047 84.4921 83.842 85.892 82.8501 87.4106C81.4947 89.3317 80.87 90.145 79.0785 90.145H75.0712C71.8535 90.145 71.9242 86.892 67.8344 83.1793C63.7446 79.4666 65.819 76.7086 64.9704 70.9334V70.957ZM49 104.288C53.6084 101.802 55.4706 100.47 58.2993 99.9629C58.7847 99.8729 59.2617 99.7428 59.7255 99.574C60.2438 102.721 61.6041 105.67 63.6621 108.107C58.6156 107.551 53.6767 106.265 49 104.288ZM68.683 108.649C63.8507 107.058 62.3774 101.295 61.9413 98.5957C63.5654 97.6225 65.0824 96.4808 66.4672 95.1895V97.2167C66.4672 97.8676 66.9949 98.3953 67.6458 98.3953C68.2968 98.3953 68.8245 97.8676 68.8245 97.2167V87.9174C72.3603 93.009 72.5253 92.5022 79.0785 92.5022C82.4847 92.5022 83.628 90.3335 85.3252 87.9174V97.2167C85.3252 97.8676 85.8529 98.3953 86.5038 98.3953C87.1548 98.3953 87.6824 97.8676 87.6824 97.2167V95.1895C89.0683 96.4863 90.5851 97.6357 92.2084 98.6193C91.7723 101.307 90.299 107.082 85.4784 108.673C79.8884 109.109 74.273 109.109 68.683 108.673V108.649ZM90.4876 108.107C92.5456 105.67 93.9058 102.721 94.4242 99.574C96.4632 100.269 97.4061 99.904 101.496 102.261C102.675 102.957 103.959 103.617 105.197 104.288C100.507 106.28 95.5518 107.574 90.4876 108.131V108.107Z" fill="#E8E7E9"/>
  <path d="M75.5544 43C83.5573 43 86.716 48.2095 86.8338 48.4217C87.0452 48.7878 87.4365 49.0127 87.8592 49.011H88.1775C88.4486 49.011 94.7542 49.4824 94.7542 58.0864C94.7422 60.2075 94.2633 62.3 93.3516 64.2152C92.6944 64.1768 92.0372 64.2897 91.4305 64.5452C90.4051 55.2223 86.9281 53.0419 86.5038 52.759C85.9517 52.4605 85.2624 52.647 84.9363 53.1833C81.8247 58.2514 74.3286 58.9821 74.3994 58.9821H68.2469C64.605 58.9821 62.3538 60.7619 62.2124 63.6966V64.2859L61.847 64.1917C61.0492 61.8846 60.6196 59.4663 60.5741 57.0256C60.5741 49.6828 67.7166 43 75.5544 43ZM49 104.288C53.6084 101.802 55.4706 100.47 58.2993 99.9629C58.7847 99.8729 59.2617 99.7428 59.7255 99.574C60.2438 102.721 61.6041 105.67 63.6621 108.107C58.6156 107.551 53.6767 106.265 49 104.288ZM90.4876 108.107C92.5456 105.67 93.9058 102.721 94.4242 99.574C96.4632 100.269 97.4061 99.904 101.496 102.261C102.675 102.957 103.959 103.617 105.197 104.288C100.507 106.28 95.5518 107.574 90.4876 108.131V108.107Z" fill="#CFCFD3"/>
</svg>
