<svg viewBox="0 0 32 32" xmlns="http://www.w3.org/2000/svg">
  <path
    d="M15.5069 1C7.50766 1 1 7.50786 1 15.5073V31H16.4922C24.4914 31 31 24.4921 31 16.4917V1H15.5069ZM14.6941 18.8974H28.4315C28.1691 20.2026 27.6928 21.4555 27.022 22.6054H10.986L14.6941 18.8974ZM17.024 16.5672L20.7037 12.8886H28.6708V16.4936C28.6708 16.5182 28.6708 16.5428 28.6708 16.5672H17.024ZM28.6698 10.5583H23.0327L28.6698 4.92098V10.5583ZM15.5069 3.33023H26.9655L3.33016 26.9663V15.5073C3.33016 8.79321 8.79297 3.33023 15.5069 3.33023ZM16.4931 28.6707H4.92086L8.65609 24.9356H25.2606C23.0441 27.2368 19.933 28.6707 16.4931 28.6707Z"
    fill="#57806e"/>
</svg>
